<svg width="177" height="48" xmlns="http://www.w3.org/2000/svg" xml:space="preserve" version="1.1">

    <g>
     <title>Layer 1</title>
     <g id="svg_1" xmlns="http://www.w3.org/2000/svg">
      <g id="svg_2">
       <path id="svg_3" fill="#fff" d="m14.29,15.16c0.06,0.14 0.05,0.31 -0.01,0.46c-0.05,0.11 -0.13,0.2 -0.23,0.26c-0.16,0.09 -0.35,0.11 -0.53,0.02c-0.11,-0.05 -0.2,-0.13 -0.26,-0.23c-0.09,-0.16 -0.11,-0.35 -0.02,-0.53l-0.33,-0.15c-0.14,0.29 -0.11,0.61 0.04,0.87c0.09,0.16 0.24,0.3 0.42,0.38c0.29,0.13 0.61,0.11 0.87,-0.04l0,0c0.16,-0.09 0.3,-0.24 0.38,-0.42c0.11,-0.24 0.11,-0.51 0.02,-0.74l-0.35,0.12l0,0z" class="st3"/>
       <path id="svg_4" fill="#fff" d="m14.97,13.49c0.02,0.15 -0.02,0.31 -0.12,0.44c-0.08,0.1 -0.18,0.16 -0.29,0.2c-0.17,0.05 -0.37,0.02 -0.52,-0.1c-0.1,-0.08 -0.16,-0.18 -0.2,-0.29c-0.05,-0.17 -0.02,-0.37 0.1,-0.52l-0.28,-0.22c-0.2,0.25 -0.25,0.57 -0.16,0.85c0.05,0.18 0.16,0.34 0.32,0.47c0.25,0.2 0.57,0.24 0.85,0.16l0,0c0.18,-0.05 0.34,-0.16 0.46,-0.32c0.16,-0.21 0.23,-0.47 0.19,-0.72l-0.35,0.05l0,0z" class="st3"/>
       <path id="svg_5" fill="#fff" d="m15.92,12.35c-0.1,0.08 -0.21,0.12 -0.32,0.13c-0.18,0.01 -0.37,-0.06 -0.49,-0.21c-0.08,-0.1 -0.12,-0.21 -0.13,-0.32c-0.01,-0.18 0.06,-0.37 0.21,-0.49l-0.23,-0.28c-0.25,0.2 -0.37,0.5 -0.35,0.8c0.01,0.19 0.08,0.37 0.21,0.52c0.2,0.25 0.5,0.37 0.8,0.35l0,0c0.19,-0.01 0.37,-0.08 0.52,-0.21c0.21,-0.17 0.33,-0.41 0.35,-0.65l-0.36,-0.05c-0.01,0.16 -0.08,0.3 -0.21,0.41" class="st3"/>
       <path id="svg_6" fill="#fff" d="m17.1,10.99c-0.11,0.05 -0.23,0.07 -0.34,0.05c-0.18,-0.03 -0.34,-0.14 -0.43,-0.32c-0.05,-0.11 -0.07,-0.23 -0.05,-0.34c0.03,-0.18 0.14,-0.34 0.32,-0.43l-0.16,-0.33c-0.29,0.14 -0.47,0.41 -0.52,0.7c-0.03,0.18 0,0.38 0.08,0.56c0.14,0.29 0.41,0.47 0.7,0.52l0,0c0.18,0.03 0.38,0 0.56,-0.08c0.24,-0.12 0.41,-0.32 0.48,-0.56l-0.35,-0.11c-0.04,0.14 -0.15,0.26 -0.29,0.34" class="st3"/>
       <path id="svg_7" fill="#fff" d="m18.56,9.86c-0.12,0.03 -0.24,0.02 -0.34,-0.03c-0.17,-0.07 -0.3,-0.21 -0.35,-0.4c-0.03,-0.12 -0.02,-0.24 0.03,-0.35c0.07,-0.17 0.21,-0.3 0.4,-0.35l-0.08,-0.35c-0.31,0.07 -0.55,0.29 -0.66,0.56c-0.07,0.17 -0.09,0.37 -0.04,0.56c0.07,0.31 0.29,0.55 0.56,0.66l0,0c0.17,0.07 0.37,0.09 0.56,0.04c0.26,-0.06 0.47,-0.22 0.6,-0.44l-0.31,-0.19c-0.08,0.15 -0.21,0.25 -0.37,0.29" class="st3"/>
       <path id="svg_8" fill="#fff" d="m20.15,9.05c-0.12,0 -0.24,-0.04 -0.33,-0.1c-0.15,-0.1 -0.25,-0.28 -0.25,-0.47c0,-0.12 0.04,-0.24 0.1,-0.33c0.1,-0.15 0.28,-0.25 0.47,-0.25l0,-0.36c-0.32,0 -0.6,0.16 -0.77,0.4c-0.11,0.15 -0.17,0.34 -0.17,0.54c0,0.32 0.16,0.6 0.4,0.77l0,0c0.15,0.11 0.34,0.17 0.54,0.17c0.27,0 0.51,-0.11 0.68,-0.29l-0.26,-0.25c-0.09,0.1 -0.24,0.17 -0.41,0.17" class="st3"/>
       <path id="svg_9" fill="#fff" d="m21.8,8.48c-0.12,-0.03 -0.22,-0.09 -0.3,-0.18c-0.12,-0.14 -0.18,-0.32 -0.13,-0.52c0.03,-0.12 0.09,-0.22 0.18,-0.3c0.14,-0.12 0.32,-0.18 0.52,-0.13l0.08,-0.35c-0.31,-0.07 -0.62,0.02 -0.84,0.22c-0.14,0.12 -0.24,0.29 -0.29,0.49c-0.07,0.31 0.02,0.62 0.22,0.84l0,0c0.12,0.14 0.29,0.24 0.49,0.29c0.26,0.06 0.52,0.01 0.73,-0.13l-0.2,-0.3c-0.14,0.07 -0.3,0.11 -0.46,0.07" class="st3"/>
       <path id="svg_10" fill="#fff" d="m34.15,15.87c-0.1,-0.06 -0.18,-0.14 -0.23,-0.25c-0.08,-0.16 -0.08,-0.32 -0.02,-0.46l-0.34,-0.13c-0.09,0.23 -0.09,0.5 0.02,0.74c0.08,0.18 0.22,0.32 0.38,0.42l0,0c0.26,0.15 0.58,0.17 0.87,0.04c0.18,-0.08 0.32,-0.22 0.42,-0.38c0.15,-0.26 0.17,-0.58 0.04,-0.87l-0.33,0.15c0.08,0.18 0.07,0.37 -0.02,0.53c-0.06,0.1 -0.14,0.18 -0.26,0.23c-0.18,0.08 -0.38,0.07 -0.53,-0.02" class="st3"/>
       <path id="svg_11" fill="#fff" d="m33.33,13.93c-0.1,-0.13 -0.14,-0.29 -0.12,-0.44l-0.36,-0.05c-0.04,0.25 0.03,0.5 0.19,0.72c0.12,0.16 0.29,0.27 0.46,0.32l0,0c0.28,0.09 0.6,0.04 0.85,-0.16c0.16,-0.12 0.27,-0.29 0.32,-0.47c0.09,-0.28 0.04,-0.6 -0.16,-0.85l-0.28,0.22c0.12,0.15 0.15,0.35 0.1,0.52c-0.03,0.11 -0.1,0.21 -0.2,0.29c-0.15,0.12 -0.35,0.15 -0.52,0.1c-0.1,-0.04 -0.2,-0.1 -0.28,-0.2" class="st3"/>
       <path id="svg_12" fill="#fff" d="m32.05,11.94l-0.36,0.03c0.02,0.25 0.14,0.49 0.35,0.65c0.16,0.13 0.34,0.19 0.52,0.21l0,0c0.29,0.02 0.6,-0.1 0.8,-0.35c0.13,-0.16 0.19,-0.34 0.21,-0.52c0.02,-0.3 -0.1,-0.6 -0.35,-0.8l-0.23,0.28c0.15,0.12 0.23,0.31 0.21,0.49c-0.01,0.11 -0.05,0.23 -0.13,0.32c-0.12,0.15 -0.31,0.22 -0.49,0.21c-0.11,-0.01 -0.23,-0.05 -0.32,-0.13c-0.13,-0.09 -0.2,-0.23 -0.21,-0.39" class="st3"/>
       <path id="svg_13" fill="#fff" d="m31.49,11.4l0,0c0.29,-0.05 0.56,-0.23 0.7,-0.52c0.09,-0.18 0.11,-0.37 0.08,-0.56c-0.05,-0.29 -0.23,-0.56 -0.52,-0.7l-0.16,0.33c0.18,0.08 0.29,0.25 0.32,0.43c0.02,0.11 0,0.23 -0.05,0.34c-0.09,0.18 -0.25,0.29 -0.43,0.32c-0.11,0.02 -0.23,0 -0.34,-0.05c-0.15,-0.07 -0.25,-0.2 -0.3,-0.34l-0.35,0.11c0.08,0.24 0.24,0.44 0.48,0.56c0.19,0.08 0.38,0.11 0.57,0.08" class="st3"/>
       <path id="svg_14" fill="#fff" d="m30.63,8.95c-0.11,-0.27 -0.35,-0.49 -0.66,-0.56l-0.08,0.35c0.19,0.04 0.34,0.18 0.4,0.35c0.04,0.11 0.06,0.22 0.03,0.34c-0.04,0.19 -0.18,0.34 -0.35,0.4c-0.11,0.04 -0.22,0.05 -0.34,0.03c-0.16,-0.04 -0.29,-0.14 -0.37,-0.27l-0.31,0.19c0.13,0.21 0.34,0.38 0.6,0.44c0.19,0.04 0.39,0.03 0.56,-0.04l0,0c0.27,-0.11 0.49,-0.35 0.56,-0.66c0.05,-0.2 0.03,-0.4 -0.04,-0.57" class="st3"/>
       <path id="svg_15" fill="#fff" d="m28.8,7.93c-0.17,-0.24 -0.45,-0.4 -0.77,-0.4l0,0.36c0.2,0 0.37,0.1 0.47,0.25c0.07,0.09 0.1,0.21 0.1,0.33c0,0.2 -0.1,0.37 -0.25,0.47c-0.09,0.07 -0.21,0.1 -0.33,0.1c-0.17,0 -0.31,-0.07 -0.42,-0.18l-0.26,0.25c0.17,0.18 0.41,0.29 0.68,0.29c0.2,0 0.39,-0.06 0.54,-0.17l0,0c0.24,-0.17 0.4,-0.45 0.4,-0.77c0.01,-0.19 -0.05,-0.38 -0.16,-0.53" class="st3"/>
       <path id="svg_16" fill="#fff" d="m26.88,7.22c-0.22,-0.2 -0.53,-0.29 -0.84,-0.22l0.08,0.35c0.19,-0.04 0.38,0.01 0.52,0.13c0.09,0.08 0.15,0.18 0.18,0.3c0.04,0.19 -0.01,0.38 -0.13,0.52c-0.08,0.08 -0.18,0.15 -0.3,0.18c-0.16,0.04 -0.32,0 -0.45,-0.08l-0.2,0.3c0.21,0.14 0.47,0.19 0.73,0.13c0.19,-0.05 0.36,-0.15 0.49,-0.29l0,0c0.2,-0.22 0.29,-0.53 0.22,-0.84c-0.06,-0.19 -0.16,-0.35 -0.3,-0.48" class="st3"/>
       <path id="svg_17" fill="#fff" d="m24.09,0c-13.29,0 -24.09,10.81 -24.09,24.09s10.81,24.09 24.09,24.09c13.29,0 24.09,-10.81 24.09,-24.09s-10.8,-24.09 -24.09,-24.09m0,47.46c-12.88,0 -23.36,-10.48 -23.36,-23.36c0,-12.88 10.48,-23.36 23.36,-23.36c12.88,0 23.36,10.48 23.36,23.36c0,12.88 -10.48,23.36 -23.36,23.36" class="st3"/>
       <path id="svg_18" fill="#fff" d="m13.24,25.7l0,0l-0.93,1.61l0,0l1.86,0l0,0l-0.93,-1.61l0,0l0,0zm-0.6,1.41l0.6,-1.03l0.6,1.03l-1.2,0l0,0z" class="st3"/>
       <path id="svg_19" fill="#fff" d="m13.24,29.18c0,0 0.01,0 0.01,0c0.45,0 0.81,-0.36 0.81,-0.81c0,-0.45 -0.36,-0.81 -0.81,-0.81c0,0 -0.01,0 -0.01,0c0,0 -0.01,0 -0.01,0c-0.45,0 -0.81,0.36 -0.81,0.81c0,0.45 0.36,0.81 0.81,0.81c0,0 0,0 0.01,0m-0.61,-0.81c0,-0.34 0.27,-0.61 0.61,-0.62c0.34,0.01 0.61,0.28 0.61,0.62c0,0.34 -0.27,0.61 -0.61,0.62c-0.34,-0.01 -0.61,-0.29 -0.61,-0.62" class="st3"/>
       <path id="svg_20" fill="#fff" d="m20.01,4.74c0.43,0 0.83,-0.24 1.05,-0.43l-0.19,-0.22c-0.03,0.03 -0.81,0.7 -1.39,0.13c-0.19,-0.18 -0.25,-0.5 -0.17,-0.79c0.1,-0.33 0.37,-0.56 0.75,-0.64c0.7,-0.13 1.27,0.34 1.89,0.83c0.14,0.11 0.29,0.23 0.43,0.34c0.62,0.46 1.35,0.46 1.72,0.46c0.37,0 1.09,0 1.72,-0.46c0.14,-0.11 0.29,-0.22 0.43,-0.34c0.61,-0.49 1.19,-0.96 1.89,-0.83c0.38,0.07 0.65,0.3 0.75,0.64c0.09,0.29 0.02,0.6 -0.17,0.79c-0.58,0.57 -1.36,-0.1 -1.39,-0.13l-0.19,0.22c0.22,0.19 0.62,0.43 1.05,0.43c0.25,0 0.51,-0.08 0.74,-0.31c0.27,-0.26 0.36,-0.68 0.24,-1.08c-0.13,-0.44 -0.49,-0.75 -0.98,-0.84c-0.83,-0.16 -1.49,0.37 -2.13,0.89c-0.14,0.11 -0.28,0.23 -0.42,0.33c-0.3,0.22 -0.65,0.33 -0.95,0.37c0.3,-0.23 0.49,-0.57 0.52,-0.95c0.03,-0.44 -0.16,-0.85 -0.49,-1.03c-0.33,-0.19 -0.66,-0.23 -0.96,-0.13c-0.55,0.17 -0.83,0.74 -0.85,0.77l0.26,0.13c0,0 0.24,-0.48 0.67,-0.61c0.23,-0.07 0.47,-0.03 0.73,0.11c0.23,0.13 0.36,0.42 0.34,0.75c-0.03,0.42 -0.31,0.77 -0.74,0.93c-0.1,0.04 -0.19,0.07 -0.32,0.08c-0.34,-0.01 -0.86,-0.08 -1.29,-0.4c-0.14,-0.1 -0.28,-0.22 -0.42,-0.33c-0.64,-0.52 -1.3,-1.05 -2.13,-0.89c-0.49,0.09 -0.85,0.4 -0.98,0.84c-0.12,0.4 -0.02,0.82 0.24,1.08c0.23,0.21 0.49,0.29 0.74,0.29" class="st3"/>
       <path id="svg_21" fill="#fff" d="m10.1,37.48c-0.06,-0.17 -0.24,-0.25 -0.41,-0.2c-0.17,0.06 -0.26,0.24 -0.2,0.41c0.06,0.16 0.24,0.26 0.41,0.2c0.17,-0.06 0.25,-0.24 0.2,-0.41" class="st3"/>
       <path id="svg_22" fill="#fff" d="m7.89,39.15c-0.17,0.06 -0.26,0.24 -0.2,0.41c0.06,0.16 0.24,0.26 0.41,0.2c0.17,-0.06 0.25,-0.25 0.2,-0.41c-0.06,-0.17 -0.24,-0.26 -0.41,-0.2" class="st3"/>
       <path id="svg_23" fill="#fff" d="m9.31,39.45c-0.17,-0.03 -0.34,0.08 -0.38,0.25c-0.03,0.17 0.09,0.34 0.25,0.38c0.17,0.03 0.34,-0.08 0.38,-0.25c0.04,-0.18 -0.07,-0.35 -0.25,-0.38" class="st3"/>
       <path id="svg_24" fill="#fff" d="m8.22,37.21c-0.03,0.17 0.09,0.34 0.25,0.38c0.17,0.03 0.34,-0.08 0.38,-0.25c0.03,-0.17 -0.08,-0.34 -0.25,-0.38c-0.17,-0.03 -0.34,0.08 -0.38,0.25" class="st3"/>
       <path id="svg_25" fill="#fff" d="m7.85,37.96c-0.13,-0.12 -0.34,-0.1 -0.45,0.03c-0.12,0.13 -0.1,0.34 0.03,0.45c0.13,0.11 0.34,0.1 0.45,-0.03c0.11,-0.12 0.1,-0.33 -0.03,-0.45" class="st3"/>
       <path id="svg_26" fill="#fff" d="m9.91,38.62c-0.12,0.13 -0.1,0.34 0.03,0.45c0.13,0.11 0.34,0.1 0.45,-0.03c0.11,-0.13 0.1,-0.34 -0.03,-0.45c-0.13,-0.12 -0.34,-0.1 -0.45,0.03" class="st3"/>
       <path id="svg_27" fill="#fff" d="m8.29,37.91c-0.33,0.33 -0.33,0.87 0,1.2c0.33,0.33 0.87,0.33 1.2,0c0.33,-0.33 0.33,-0.87 0,-1.2c-0.33,-0.33 -0.87,-0.33 -1.2,0m1.07,1.07c-0.26,0.26 -0.67,0.26 -0.93,0c-0.26,-0.26 -0.26,-0.67 0,-0.93c0.26,-0.26 0.67,-0.26 0.93,0c0.25,0.25 0.25,0.67 0,0.93" class="st3"/>
       <path id="svg_28" fill="#fff" d="m12.76,39.97c-0.15,0.09 -0.2,0.29 -0.11,0.44c0.09,0.15 0.29,0.2 0.44,0.11c0.15,-0.09 0.2,-0.29 0.11,-0.44c-0.09,-0.15 -0.29,-0.2 -0.44,-0.11" class="st3"/>
       <path id="svg_29" fill="#fff" d="m11.37,42.15c-0.15,0.09 -0.2,0.29 -0.11,0.44c0.09,0.15 0.29,0.2 0.44,0.11c0.15,-0.09 0.2,-0.29 0.11,-0.44c-0.09,-0.15 -0.29,-0.2 -0.44,-0.11" class="st3"/>
       <path id="svg_30" fill="#fff" d="m12.82,42.16c-0.17,0 -0.32,0.15 -0.32,0.32c0,0.18 0.15,0.32 0.32,0.32c0.18,0 0.32,-0.15 0.32,-0.32c0,-0.18 -0.14,-0.32 -0.32,-0.32" class="st3"/>
       <path id="svg_31" fill="#fff" d="m11.3,40.19c0,0.18 0.15,0.32 0.32,0.32c0.18,0 0.32,-0.15 0.32,-0.32c0,-0.18 -0.15,-0.32 -0.32,-0.32c-0.17,0 -0.32,0.14 -0.32,0.32" class="st3"/>
       <path id="svg_32" fill="#fff" d="m11.09,41c-0.15,-0.09 -0.35,-0.03 -0.44,0.12c-0.09,0.15 -0.03,0.35 0.12,0.44c0.15,0.09 0.35,0.03 0.44,-0.12c0.08,-0.15 0.03,-0.35 -0.12,-0.44" class="st3"/>
       <path id="svg_33" fill="#fff" d="m13.68,41.11c-0.15,-0.09 -0.35,-0.03 -0.44,0.12c-0.09,0.15 -0.03,0.35 0.12,0.44c0.15,0.09 0.35,0.03 0.44,-0.12c0.08,-0.15 0.03,-0.35 -0.12,-0.44" class="st3"/>
       <path id="svg_34" fill="#fff" d="m12.93,41.8c0.26,-0.39 0.15,-0.92 -0.24,-1.18c-0.39,-0.26 -0.92,-0.15 -1.18,0.24c-0.26,0.39 -0.15,0.92 0.24,1.18c0.39,0.26 0.92,0.15 1.18,-0.24m-1.07,0.08c-0.3,-0.2 -0.39,-0.61 -0.19,-0.91c0.2,-0.3 0.61,-0.39 0.91,-0.19c0.3,0.2 0.39,0.61 0.19,0.91c-0.2,0.3 -0.61,0.39 -0.91,0.19" class="st3"/>
       <path id="svg_35" fill="#fff" d="m38.69,37.69c0.06,-0.17 -0.03,-0.35 -0.2,-0.41c-0.17,-0.06 -0.35,0.03 -0.41,0.2c-0.06,0.16 0.03,0.35 0.2,0.41c0.17,0.06 0.36,-0.04 0.41,-0.2" class="st3"/>
       <path id="svg_36" fill="#fff" d="m40.29,39.15c-0.17,-0.06 -0.35,0.03 -0.41,0.2c-0.06,0.16 0.03,0.35 0.2,0.41c0.17,0.06 0.35,-0.04 0.41,-0.2c0.06,-0.17 -0.03,-0.35 -0.2,-0.41" class="st3"/>
       <path id="svg_37" fill="#fff" d="m38.87,39.45c-0.17,0.03 -0.29,0.2 -0.25,0.38c0.03,0.17 0.2,0.29 0.38,0.25c0.17,-0.03 0.29,-0.2 0.25,-0.38c-0.04,-0.17 -0.21,-0.28 -0.38,-0.25" class="st3"/>
       <path id="svg_38" fill="#fff" d="m39.33,37.33c0.03,0.17 0.2,0.29 0.38,0.25c0.17,-0.03 0.29,-0.2 0.25,-0.38c-0.03,-0.17 -0.21,-0.29 -0.38,-0.25c-0.17,0.04 -0.28,0.21 -0.25,0.38" class="st3"/>
       <path id="svg_39" fill="#fff" d="m40.33,37.96c-0.13,0.12 -0.14,0.32 -0.03,0.45c0.11,0.13 0.32,0.15 0.45,0.03c0.13,-0.12 0.15,-0.32 0.03,-0.45c-0.11,-0.12 -0.31,-0.14 -0.45,-0.03" class="st3"/>
       <path id="svg_40" fill="#fff" d="m37.82,38.59c-0.13,0.12 -0.14,0.32 -0.03,0.45c0.11,0.13 0.32,0.15 0.45,0.03c0.13,-0.12 0.15,-0.32 0.03,-0.45c-0.11,-0.13 -0.32,-0.15 -0.45,-0.03" class="st3"/>
       <path id="svg_41" fill="#fff" d="m39.89,37.91c-0.33,-0.33 -0.87,-0.33 -1.2,0c-0.33,0.33 -0.33,0.87 0,1.2c0.33,0.33 0.87,0.33 1.2,0c0.33,-0.33 0.33,-0.86 0,-1.2m-1.06,1.07c-0.26,-0.26 -0.26,-0.67 0,-0.93c0.26,-0.26 0.67,-0.26 0.93,0c0.26,0.26 0.26,0.67 0,0.93c-0.26,0.26 -0.68,0.26 -0.93,0" class="st3"/>
       <path id="svg_42" fill="#fff" d="m34.99,40.08c-0.09,0.15 -0.04,0.35 0.11,0.44c0.15,0.09 0.35,0.03 0.44,-0.11c0.09,-0.15 0.04,-0.35 -0.11,-0.44c-0.15,-0.09 -0.35,-0.04 -0.44,0.11" class="st3"/>
       <path id="svg_43" fill="#fff" d="m36.82,42.15c-0.15,-0.09 -0.35,-0.04 -0.44,0.11c-0.09,0.15 -0.04,0.35 0.11,0.44c0.15,0.09 0.35,0.03 0.44,-0.11c0.09,-0.15 0.04,-0.35 -0.11,-0.44" class="st3"/>
       <path id="svg_44" fill="#fff" d="m35.36,42.16c-0.18,0 -0.32,0.14 -0.32,0.32c0,0.18 0.14,0.32 0.32,0.32c0.17,0 0.32,-0.14 0.32,-0.32c0,-0.17 -0.14,-0.32 -0.32,-0.32" class="st3"/>
       <path id="svg_45" fill="#fff" d="m36.24,40.18c0,0.18 0.14,0.32 0.32,0.32c0.17,0 0.32,-0.14 0.32,-0.32c0,-0.18 -0.15,-0.32 -0.32,-0.32c-0.17,0 -0.32,0.15 -0.32,0.32" class="st3"/>
       <path id="svg_46" fill="#fff" d="m37.09,41c-0.15,0.09 -0.2,0.29 -0.12,0.44c0.09,0.15 0.28,0.21 0.44,0.12c0.15,-0.09 0.21,-0.28 0.12,-0.44c-0.08,-0.15 -0.28,-0.21 -0.44,-0.12" class="st3"/>
       <path id="svg_47" fill="#fff" d="m34.51,41.11c-0.15,0.09 -0.2,0.29 -0.12,0.44c0.09,0.15 0.28,0.21 0.44,0.12c0.15,-0.09 0.21,-0.28 0.12,-0.44c-0.09,-0.15 -0.29,-0.21 -0.44,-0.12" class="st3"/>
       <path id="svg_48" fill="#fff" d="m36.67,40.86c-0.26,-0.39 -0.78,-0.5 -1.18,-0.24c-0.39,0.26 -0.5,0.78 -0.24,1.18c0.26,0.39 0.78,0.5 1.18,0.24c0.39,-0.26 0.5,-0.79 0.24,-1.18m-0.34,1.02c-0.3,0.2 -0.71,0.12 -0.91,-0.19c-0.2,-0.3 -0.12,-0.71 0.19,-0.91c0.3,-0.2 0.71,-0.12 0.91,0.19c0.19,0.3 0.11,0.71 -0.19,0.91" class="st3"/>
       <path id="svg_49" fill="#fff" d="m9.91,21.95l-0.11,0.06c-0.1,0.05 -0.49,0.25 -0.92,0.53c-0.04,-0.18 -0.11,-0.46 -0.27,-0.74c-0.13,-0.23 -0.4,-0.55 -0.53,-0.7c0.1,-0.16 0.34,-0.53 0.69,-0.88c0.48,-0.48 1.04,-0.81 1.04,-0.81l-0.15,-0.25c-0.02,0.01 -0.6,0.35 -1.1,0.86c-0.49,0.49 -0.78,1.01 -0.79,1.03l-0.05,0.09l0.07,0.08c0,0 0.42,0.46 0.57,0.73c0.18,0.32 0.24,0.65 0.26,0.78c-0.56,0.4 -1.1,0.9 -1.1,1.38c0,0.48 0.54,0.98 1.1,1.38c-0.02,0.13 -0.08,0.45 -0.26,0.78c-0.15,0.27 -0.56,0.72 -0.57,0.73l-0.07,0.08l0.05,0.09c0.01,0.02 0.29,0.54 0.79,1.03c0.5,0.5 1.08,0.84 1.1,0.86l0.15,-0.25c-0.01,0 -0.57,-0.34 -1.04,-0.81c-0.35,-0.35 -0.59,-0.71 -0.69,-0.88c0.13,-0.15 0.41,-0.47 0.53,-0.7c0.16,-0.28 0.23,-0.56 0.27,-0.74c0.44,0.28 0.83,0.48 0.92,0.53l0.11,0.06l0.07,-0.1c0.03,-0.04 0.63,-0.93 0.63,-2.04c0,-1.11 -0.6,-2 -0.63,-2.03l-0.07,-0.15l0,0zm-0.65,1.45l0.88,-0.32c0.08,0.26 0.15,0.55 0.17,0.87l-0.99,0l0,0.29l0.99,0c-0.02,0.32 -0.09,0.62 -0.17,0.87l-0.88,-0.32l-0.1,0.28l0.88,0.32c-0.09,0.21 -0.17,0.37 -0.23,0.47c-0.66,-0.34 -2.01,-1.17 -2.01,-1.76c0,-0.6 1.35,-1.42 2.01,-1.76c0.06,0.1 0.15,0.26 0.23,0.47l-0.88,0.32l0.1,0.27l0,0z" class="st3"/>
       <path id="svg_50" fill="#fff" d="m39.84,26.25c-0.18,-0.32 -0.24,-0.65 -0.26,-0.78c0.56,-0.4 1.1,-0.9 1.1,-1.38c0,-0.48 -0.54,-0.98 -1.1,-1.38c0.02,-0.12 0.08,-0.45 0.26,-0.78c0.15,-0.27 0.56,-0.72 0.57,-0.73l0.07,-0.08l-0.05,-0.09c-0.01,-0.02 -0.29,-0.54 -0.79,-1.03c-0.5,-0.5 -1.08,-0.84 -1.1,-0.86l-0.15,0.25c0.01,0 0.57,0.34 1.04,0.81c0.35,0.35 0.59,0.71 0.69,0.88c-0.13,0.15 -0.41,0.47 -0.53,0.7c-0.16,0.28 -0.23,0.56 -0.27,0.74c-0.44,-0.28 -0.83,-0.48 -0.92,-0.53l-0.11,-0.06l-0.07,0.1c-0.03,0.04 -0.63,0.92 -0.63,2.03c0,1.11 0.6,2.01 0.63,2.04l0.07,0.1l0.11,-0.06c0.1,-0.05 0.49,-0.25 0.92,-0.53c0.04,0.18 0.11,0.46 0.27,0.74c0.13,0.23 0.4,0.55 0.53,0.7c-0.1,0.16 -0.34,0.53 -0.69,0.88c-0.48,0.48 -1.04,0.81 -1.04,0.81l0.15,0.25c0.02,-0.01 0.6,-0.35 1.1,-0.86c0.49,-0.49 0.78,-1.01 0.79,-1.03l0.05,-0.09l-0.07,-0.08c0,0.04 -0.42,-0.41 -0.57,-0.68m-1.46,-0.39c-0.06,-0.1 -0.15,-0.26 -0.23,-0.47l0.88,-0.32l-0.1,-0.28l-0.88,0.32c-0.09,-0.26 -0.16,-0.55 -0.17,-0.87l0.99,0l0,-0.29l-0.99,0c0.02,-0.32 0.09,-0.62 0.17,-0.87l0.88,0.32l0.1,-0.28l-0.88,-0.32c0.09,-0.21 0.17,-0.37 0.23,-0.47c0.65,0.34 2.01,1.17 2.01,1.76c0,0.6 -1.35,1.43 -2.01,1.77" class="st3"/>
       <polygon id="svg_51" fill="#fff" points="35.040000915527344,23.03999900817871 34.86000061035156,23.03999900817871 34.86000061035156,25.39000129699707 35.040000915527344,25.39000129699707 35.040000915527344,23.03999900817871 " class="st3"/>
       <polygon id="svg_52" fill="#fff" points="34.86000061035156,33.69000053405762 35.040000915527344,33.69000053405762 35.040000915527344,31.350000381469727 34.86000061035156,31.350000381469727 34.86000061035156,33.69000053405762 " class="st3"/>
       <path id="svg_53" fill="#fff" d="m34.02,27.3l1.86,0l-0.93,-1.61l-0.93,1.61l0,0zm0.33,-0.19l0.6,-1.04l0.6,1.04l-1.2,0l0,0z" class="st3"/>
       <path id="svg_54" fill="#fff" d="m34.95,31.04l0.93,-1.61l-1.86,0l0.93,1.61l0,0zm0,-0.38l-0.6,-1.04l1.2,0l-0.6,1.04l0,0z" class="st3"/>
       <path id="svg_55" fill="#fff" d="m35.77,28.37c0,-0.45 -0.36,-0.81 -0.81,-0.81c-0.45,0 -0.81,0.36 -0.81,0.81c0,0.45 0.36,0.81 0.81,0.81c0.45,0 0.81,-0.37 0.81,-0.81m-1.43,0c0,-0.34 0.28,-0.62 0.62,-0.62c0.34,0 0.62,0.28 0.62,0.62c0,0.34 -0.28,0.62 -0.62,0.62c-0.34,0 -0.62,-0.28 -0.62,-0.62" class="st3"/>
       <polygon id="svg_56" fill="#fff" points="13.329999923706055,25.39000129699707 13.329999923706055,25.39000129699707 13.329999923706055,23.48000144958496 13.329999923706055,23.48000144958496 13.329999923706055,23.03999900817871 13.139999389648438,23.03999900817871 13.139999389648438,25.39000129699707 13.149999618530273,25.39000129699707 13.329999923706055,25.39000129699707 " class="st3"/>
       <polygon id="svg_57" fill="#fff" points="13.149999618530273,31.350000381469727 13.139999389648438,31.350000381469727 13.139999389648438,33.69000053405762 13.329999923706055,33.69000053405762 13.329999923706055,33.25000190734863 13.329999923706055,33.25000190734863 13.329999923706055,31.350000381469727 13.329999923706055,31.350000381469727 13.149999618530273,31.350000381469727 " class="st3"/>
       <path id="svg_58" fill="#fff" d="m12.31,29.43l0,0l0.93,1.61l0,0l0,0l0.93,-1.61l0,0l-1.86,0l0,0zm0.93,1.23l-0.6,-1.03l1.19,0l-0.59,1.03l0,0z" class="st3"/>
       <path id="svg_59" fill="#fff" d="m32.36,43.29c-0.25,-0.05 -0.51,-0.06 -0.72,-0.11c-0.21,-0.05 -0.34,-0.12 -0.41,-0.29c-0.02,-0.05 -0.03,-0.09 -0.03,-0.13c0,-0.15 0.1,-0.31 0.36,-0.41c0.11,-0.05 0.21,-0.06 0.29,-0.06c0.27,0 0.42,0.2 0.52,0.35l0.05,0.07l0.29,-0.12l-0.38,-0.85l-0.08,0.01c-0.16,0.02 -0.47,0.06 -0.81,0.19c-0.26,0.11 -0.48,0.23 -0.64,0.4c-0.16,0.16 -0.26,0.37 -0.26,0.6c0,0.12 0.03,0.25 0.08,0.38c0.13,0.32 0.39,0.47 0.67,0.55c0.23,0.06 0.53,0.07 0.79,0.11c0.13,0.02 0.25,0.05 0.34,0.09c0.09,0.04 0.15,0.1 0.17,0.17c0.01,0.03 0.02,0.07 0.02,0.1c0,0.12 -0.09,0.27 -0.33,0.37c-0.1,0.04 -0.18,0.05 -0.24,0.05c-0.21,0 -0.34,-0.14 -0.43,-0.3l-0.04,-0.08l-0.3,0.12l0.04,0.1l0.32,0.71l0.08,-0.02c0.13,-0.03 0.44,-0.09 0.73,-0.2c0.49,-0.2 0.79,-0.52 0.79,-0.91c0,-0.11 -0.02,-0.22 -0.07,-0.33c-0.14,-0.36 -0.48,-0.5 -0.8,-0.56" class="st3"/>
       <path id="svg_60" fill="#fff" d="m37.42,8.83l0.04,-0.07l-0.22,-0.23l-0.63,0.68l0.04,0.07c0.08,0.14 0.23,0.41 0.5,0.68c0.28,0.28 0.58,0.47 0.89,0.5l0,0c0.24,0.02 0.49,-0.07 0.7,-0.28c0.16,-0.16 0.23,-0.35 0.25,-0.54c0.01,-0.1 0,-0.2 -0.01,-0.3c-0.02,-0.18 -0.1,-0.38 -0.16,-0.59c-0.06,-0.2 -0.11,-0.4 -0.1,-0.55c0.01,-0.09 0.03,-0.15 0.09,-0.21c0.06,-0.06 0.13,-0.09 0.22,-0.08c0.09,0.01 0.21,0.06 0.33,0.18c0.15,0.16 0.18,0.28 0.18,0.4c-0.01,0.11 -0.07,0.22 -0.14,0.32l-0.05,0.07l0.23,0.23l0.07,-0.08l0.53,-0.57l-0.05,-0.07c-0.08,-0.11 -0.25,-0.37 -0.47,-0.59c-0.26,-0.26 -0.52,-0.41 -0.79,-0.43c-0.23,-0.02 -0.45,0.07 -0.63,0.24c-0.16,0.16 -0.23,0.35 -0.25,0.54c-0.01,0.15 0.01,0.29 0.04,0.44c0.08,0.35 0.22,0.69 0.2,0.93c-0.01,0.1 -0.04,0.18 -0.12,0.26c-0.08,0.08 -0.17,0.11 -0.28,0.1c-0.11,-0.01 -0.23,-0.07 -0.36,-0.19c-0.18,-0.19 -0.22,-0.34 -0.21,-0.48c0.02,-0.15 0.1,-0.28 0.16,-0.38" class="st3"/>
       <path id="svg_61" fill="#fff" d="m3.76,32.98c0,-0.04 0,-0.04 0.04,-0.07c0.03,-0.03 0.1,-0.07 0.21,-0.11l1.8,-0.72c0.11,-0.05 0.19,-0.07 0.23,-0.07c0.04,0 0.04,0 0.07,0.03c0.03,0.03 0.06,0.09 0.09,0.18l0.04,0.09l0.3,-0.12l-0.04,-0.1l-0.51,-1.27l-0.29,0.12l0.04,0.09c0.04,0.09 0.05,0.16 0.05,0.19c0,0.04 -0.01,0.04 -0.04,0.08c-0.03,0.03 -0.1,0.07 -0.21,0.11l-1.8,0.73c-0.11,0.05 -0.19,0.07 -0.23,0.07c-0.04,0 -0.05,-0.01 -0.07,-0.03c-0.03,-0.03 -0.06,-0.08 -0.09,-0.17l-0.04,-0.09l-0.29,0.12l0.55,1.36l0.29,-0.12l-0.04,-0.09c-0.04,-0.11 -0.06,-0.18 -0.06,-0.21" class="st3"/>
       <path id="svg_62" fill="#fff" d="m7.7,34.21l-0.04,-0.06l-0.24,-0.4l-2.72,0.5c-0.08,0.02 -0.14,0.02 -0.19,0.02c-0.07,0 -0.1,-0.01 -0.14,-0.04c-0.04,-0.03 -0.08,-0.08 -0.14,-0.17l-0.05,-0.09l-0.27,0.16l0.68,1.14l0.27,-0.17l-0.05,-0.09c-0.08,-0.12 -0.1,-0.21 -0.1,-0.23c0,-0.02 0,-0.01 0.02,-0.03c0.02,-0.01 0.07,-0.03 0.19,-0.05l1.77,-0.33l-1.14,1.37c-0.08,0.09 -0.11,0.12 -0.14,0.14c-0.02,0.01 -0.02,0.01 -0.03,0.01c0,0 -0.01,0 -0.04,-0.03c-0.03,-0.02 -0.06,-0.07 -0.1,-0.14l-0.05,-0.09l-0.27,0.16l0.77,1.27l0.27,-0.17l-0.05,-0.09c-0.07,-0.12 -0.1,-0.19 -0.09,-0.23c0,-0.06 0.05,-0.15 0.19,-0.32l1.69,-2.04l0,0z" class="st3"/>
       <path id="svg_63" fill="#fff" d="m2.86,30.61c0,-0.06 0.01,-0.06 0.04,-0.09c0.03,-0.03 0.11,-0.06 0.23,-0.09l1.88,-0.47c0.09,-0.02 0.16,-0.03 0.21,-0.03c0.06,0 0.07,0.01 0.09,0.03c0.02,0.03 0.05,0.09 0.08,0.2l0.02,0.1l0.31,-0.07l-0.02,-0.1l-0.55,-2.23l-0.84,0.17l0.08,0.33l0.1,-0.02c0.05,-0.01 0.09,-0.01 0.12,-0.01c0.08,0 0.13,0.02 0.18,0.07c0.05,0.05 0.1,0.13 0.13,0.28l0.1,0.4c0.02,0.06 0.02,0.11 0.02,0.13c0,0.03 0,0.01 -0.01,0.03c-0.02,0.01 -0.08,0.04 -0.19,0.06l-0.81,0.2l-0.12,-0.47c-0.01,-0.06 -0.02,-0.11 -0.02,-0.14c0,-0.06 0.01,-0.06 0.03,-0.08c0.03,-0.02 0.09,-0.05 0.19,-0.07l0.1,-0.02l-0.08,-0.32l-1.1,0.27l0.08,0.32l0.1,-0.02c0.08,-0.02 0.14,-0.03 0.18,-0.03c0.05,0 0.05,0.01 0.06,0.02c0.02,0.02 0.04,0.08 0.07,0.17l0.12,0.47l-0.67,0.17c-0.07,0.02 -0.12,0.02 -0.15,0.02c-0.04,0 -0.05,-0.01 -0.06,-0.02c-0.01,-0.01 -0.03,-0.05 -0.05,-0.12l-0.07,-0.28c-0.03,-0.1 -0.04,-0.18 -0.04,-0.25c0,-0.11 0.03,-0.16 0.07,-0.2c0.04,-0.04 0.11,-0.07 0.19,-0.1l0.09,-0.03l-0.08,-0.32l-0.83,0.24l0.56,2.26l0.31,-0.08l-0.02,-0.1c-0.02,-0.08 -0.03,-0.14 -0.03,-0.18" class="st3"/>
       <path id="svg_64" fill="#fff" d="m8.46,8.3c0.11,-0.1 0.17,-0.13 0.2,-0.12c0.02,0 0.04,0 0.08,0.03c0.04,0.03 0.09,0.07 0.15,0.14l1.3,1.44c0.12,0.13 0.15,0.2 0.15,0.23c0,0.03 -0.03,0.09 -0.15,0.19l-0.08,0.07l0.21,0.23l0.08,-0.07l1.01,-0.91l-0.21,-0.24l-0.08,0.07c-0.11,0.1 -0.17,0.13 -0.2,0.12c-0.02,0 -0.04,-0.01 -0.08,-0.03c-0.04,-0.03 -0.09,-0.07 -0.15,-0.14l-1.3,-1.44c-0.12,-0.13 -0.15,-0.2 -0.15,-0.23c0,-0.03 0.03,-0.09 0.14,-0.19l0.08,-0.07l-0.21,-0.24l-1.09,0.98l0.21,0.24l0.09,-0.06l0,0z" class="st3"/>
       <path id="svg_65" fill="#fff" d="m2.06,27.13c0,-0.03 0,-0.05 0,-0.08c0,-0.12 0.02,-0.15 0.04,-0.17c0.02,-0.02 0.11,-0.05 0.26,-0.06l1.93,-0.15c0.03,0 0.06,0 0.09,0c0.13,0 0.17,0.02 0.19,0.04c0.02,0.02 0.05,0.09 0.06,0.22l0.01,0.1l0.32,-0.03l-0.01,-0.1l-0.09,-1.15l-0.32,0.03l0.01,0.1c0,0.03 0,0.05 0,0.08c0,0.12 -0.02,0.15 -0.04,0.17c-0.02,0.02 -0.11,0.05 -0.26,0.06l-1.65,0.13l2.18,-1.5l-0.04,-0.59l-2.57,0.2c-0.04,0 -0.07,0.01 -0.1,0.01c-0.13,0 -0.17,-0.02 -0.19,-0.04c-0.02,-0.02 -0.05,-0.09 -0.05,-0.23l-0.01,-0.1l-0.32,0.03l0.1,1.25l0.32,-0.02l-0.01,-0.1c0,-0.03 0,-0.05 0,-0.08c0,-0.12 0.02,-0.15 0.04,-0.17c0.02,-0.02 0.11,-0.05 0.26,-0.06l1.52,-0.12l-2.06,1.42l0.08,1.04l0.32,-0.02l-0.01,-0.11l0,0z" class="st3"/>
       <path id="svg_66" fill="#fff" d="m11.62,7.31c0.03,0 0.06,0 0.09,0c0.26,-0.01 0.51,-0.06 0.72,-0.06c0.21,0 0.36,0.04 0.46,0.19c0.04,0.06 0.07,0.13 0.07,0.2c0,0.13 -0.07,0.27 -0.26,0.41c-0.15,0.11 -0.28,0.14 -0.38,0.14c-0.2,0 -0.36,-0.13 -0.47,-0.23l-0.06,-0.05l-0.26,0.18l0.56,0.74l0.07,-0.03c0.15,-0.06 0.45,-0.16 0.75,-0.37c0.4,-0.28 0.67,-0.61 0.68,-0.99c0,-0.18 -0.06,-0.36 -0.19,-0.53c-0.2,-0.28 -0.49,-0.37 -0.78,-0.38c-0.02,0 -0.03,0 -0.05,0c-0.27,0 -0.61,0.08 -0.88,0.08c-0.2,0 -0.35,-0.04 -0.42,-0.15c-0.03,-0.05 -0.05,-0.1 -0.05,-0.15c0,-0.11 0.07,-0.25 0.25,-0.37c0.13,-0.09 0.23,-0.12 0.32,-0.12c0.16,0 0.29,0.1 0.39,0.2l0.06,0.06l0.27,-0.19l-0.06,-0.09l-0.47,-0.62l-0.08,0.03c-0.12,0.06 -0.41,0.18 -0.66,0.36c-0.37,0.26 -0.59,0.57 -0.59,0.9c0,0.16 0.05,0.32 0.16,0.47c0.19,0.3 0.51,0.38 0.81,0.37" class="st3"/>
       <path id="svg_67" fill="#fff" d="m6.46,11.41c0.17,0.14 0.36,0.19 0.54,0.19c0.15,0 0.3,-0.04 0.45,-0.08c0.34,-0.12 0.67,-0.29 0.91,-0.29c0.1,0 0.18,0.02 0.26,0.09c0.09,0.07 0.13,0.16 0.13,0.27c0,0.1 -0.04,0.23 -0.15,0.37c-0.17,0.21 -0.32,0.26 -0.46,0.26c-0.14,0 -0.28,-0.06 -0.39,-0.11l-0.07,-0.04l-0.2,0.25l0.74,0.56l0.06,-0.04c0.13,-0.09 0.39,-0.28 0.62,-0.56c0.24,-0.3 0.4,-0.61 0.41,-0.92c0,-0.25 -0.12,-0.49 -0.36,-0.69c-0.17,-0.14 -0.36,-0.19 -0.54,-0.19c-0.1,0 -0.21,0.02 -0.31,0.04c-0.18,0.04 -0.38,0.14 -0.57,0.22c-0.2,0.08 -0.39,0.15 -0.54,0.15c-0.09,0 -0.15,-0.02 -0.21,-0.06c-0.07,-0.06 -0.1,-0.12 -0.1,-0.22c0,-0.09 0.04,-0.21 0.15,-0.35c0.14,-0.17 0.27,-0.21 0.38,-0.22c0.11,0 0.23,0.05 0.32,0.1l0.08,0.05l0.21,-0.25l-0.09,-0.06l-0.63,-0.47l-0.06,0.05c-0.1,0.09 -0.34,0.29 -0.54,0.53c-0.23,0.28 -0.35,0.55 -0.35,0.81c0,0.23 0.11,0.45 0.31,0.61" class="st3"/>
       <path id="svg_68" fill="#fff" d="m1.89,22.71c0.02,-0.12 0.04,-0.19 0.06,-0.21c0.02,-0.02 0.04,-0.04 0.13,-0.04c0.04,0 0.1,0 0.17,0.01l1.92,0.27c0.14,0.02 0.22,0.04 0.25,0.07c0.03,0.02 0.04,0.04 0.04,0.12c0,0.03 0,0.08 -0.01,0.13l-0.01,0.1l0.31,0.05l0.01,-0.1l0.16,-1.14l-0.31,-0.05l-0.01,0.1c-0.02,0.12 -0.04,0.19 -0.06,0.21c-0.02,0.02 -0.04,0.03 -0.12,0.04c-0.04,0 -0.1,-0.01 -0.17,-0.02l-1.64,-0.23l2.45,-1l0.08,-0.58l-2.55,-0.36c-0.14,-0.02 -0.22,-0.04 -0.25,-0.07c-0.03,-0.02 -0.04,-0.03 -0.04,-0.12c0,-0.04 0,-0.08 0.01,-0.14l0.01,-0.1l-0.32,-0.04l-0.18,1.24l0.32,0.04l0.01,-0.1c0.02,-0.12 0.04,-0.19 0.06,-0.21c0.02,-0.02 0.04,-0.04 0.13,-0.04c0.04,0 0.1,0.01 0.16,0.01l1.51,0.21l-2.31,0.94l-0.15,1.04l0.31,0.04l0.03,-0.07l0,0z" class="st3"/>
       <path id="svg_69" fill="#fff" d="m2.62,18.37c0.03,-0.1 0.06,-0.16 0.09,-0.19c0.02,-0.03 0.03,-0.03 0.08,-0.03c0.04,0 0.12,0.02 0.22,0.05l1.84,0.6c0.11,0.04 0.19,0.07 0.22,0.1c0.03,0.03 0.03,0.04 0.04,0.08c0,0.04 -0.01,0.1 -0.04,0.19l-0.03,0.1l0.3,0.1l0.03,-0.1l0.71,-2.18l-0.81,-0.3l-0.1,0.32l0.09,0.03c0.09,0.03 0.15,0.07 0.19,0.12c0.04,0.04 0.06,0.09 0.06,0.17c0,0.06 -0.01,0.13 -0.04,0.22l-0.13,0.39c-0.02,0.07 -0.04,0.12 -0.05,0.13c-0.01,0.01 0,0 -0.02,0.01c-0.03,0 -0.09,-0.01 -0.19,-0.05l-0.79,-0.26l0.15,-0.46c0.03,-0.09 0.06,-0.14 0.08,-0.16c0.02,-0.02 0.03,-0.02 0.07,-0.03c0.04,0 0.1,0.01 0.18,0.04l0.1,0.03l0.1,-0.31l-1.08,-0.35l-0.1,0.31l0.1,0.03c0.1,0.03 0.16,0.06 0.18,0.08c0.02,0.02 0.02,0.02 0.03,0.06c0,0.03 -0.01,0.09 -0.04,0.17l-0.15,0.46l-0.66,-0.21c-0.08,-0.03 -0.14,-0.05 -0.16,-0.07c-0.02,-0.02 -0.02,-0.02 -0.02,-0.05c0,-0.02 0.01,-0.06 0.02,-0.11l0.09,-0.27c0.05,-0.17 0.11,-0.26 0.17,-0.31c0.05,-0.05 0.09,-0.06 0.16,-0.06c0.05,0 0.1,0.01 0.16,0.02l0.09,0.02l0.1,-0.32l-0.83,-0.23l-0.72,2.21l0.3,0.1l0.01,-0.09l0,0z" class="st3"/>
       <path id="svg_70" fill="#fff" d="m3.89,14.82c0.04,-0.08 0.08,-0.13 0.11,-0.16c0.03,-0.03 0.04,-0.03 0.07,-0.03c0.04,0 0.12,0.03 0.24,0.09l1.7,0.94c0.09,0.05 0.15,0.09 0.18,0.13c0.03,0.03 0.03,0.05 0.04,0.07c0,0.03 -0.02,0.1 -0.08,0.2l-0.05,0.09l0.28,0.15l0.05,-0.09l0.56,-1.01l-0.28,-0.16l-0.05,0.09c-0.04,0.08 -0.08,0.13 -0.11,0.16c-0.03,0.03 -0.04,0.03 -0.07,0.03c-0.04,0 -0.12,-0.03 -0.24,-0.09l-1.44,-0.8l2.64,-0.05l0.29,-0.52l-2.25,-1.25c-0.09,-0.05 -0.15,-0.09 -0.19,-0.12c-0.03,-0.03 -0.03,-0.05 -0.04,-0.07c0,-0.03 0.02,-0.1 0.08,-0.2l0.05,-0.09l-0.28,-0.15l-0.61,1.1l0.28,0.15l0.05,-0.09c0.04,-0.08 0.08,-0.13 0.11,-0.16c0.03,-0.03 0.04,-0.03 0.07,-0.03c0.04,0 0.12,0.03 0.24,0.09l1.34,0.74l-2.5,0.05l-0.51,0.91l0.27,0.17l0.05,-0.09l0,0z" class="st3"/>
       <path id="svg_71" fill="#fff" d="m18.11,42.44l-0.1,0.3l0.1,0.03c0.1,0.03 0.16,0.06 0.18,0.08c0.03,0.03 0.03,0.03 0.03,0.08c0,0.04 -0.01,0.12 -0.05,0.23l-0.59,1.85c-0.03,0.11 -0.07,0.18 -0.1,0.22c-0.03,0.03 -0.04,0.04 -0.08,0.04c-0.04,0 -0.1,-0.01 -0.19,-0.04l-0.1,-0.03l-0.1,0.3l1.4,0.45l0.1,-0.3l-0.1,-0.03c-0.1,-0.03 -0.16,-0.06 -0.19,-0.08c-0.03,-0.02 -0.03,-0.03 -0.03,-0.07c0,-0.04 0.01,-0.12 0.05,-0.23l0.59,-1.85c0.04,-0.11 0.07,-0.18 0.1,-0.22c0.03,-0.03 0.03,-0.04 0.08,-0.04c0.04,0 0.1,0.01 0.19,0.04l0.1,0.03l0.1,-0.3l-0.1,-0.03l-1.29,-0.43l0,0z" class="st3"/>
       <path id="svg_72" fill="#fff" d="m15.76,41.54l-0.13,0.29l0.09,0.04c0.09,0.04 0.14,0.07 0.17,0.1c0.03,0.03 0.03,0.04 0.03,0.07c0,0.04 -0.02,0.12 -0.07,0.23l-0.79,1.77c-0.04,0.1 -0.08,0.17 -0.11,0.2c-0.03,0.03 -0.04,0.03 -0.07,0.04c-0.03,0 -0.1,-0.02 -0.2,-0.06l-0.09,-0.04l-0.13,0.29l1.34,0.6l0.13,-0.29l-0.09,-0.04c-0.09,-0.04 -0.14,-0.07 -0.17,-0.1c-0.03,-0.03 -0.03,-0.04 -0.03,-0.07c0,-0.04 0.02,-0.12 0.07,-0.24l0.79,-1.77c0.04,-0.1 0.08,-0.17 0.11,-0.2c0.03,-0.03 0.04,-0.03 0.07,-0.04c0.03,0 0.1,0.02 0.2,0.06l0.09,0.04l0.13,-0.29l-0.09,-0.04l-1.25,-0.55l0,0z" class="st3"/>
       <path id="svg_73" fill="#fff" d="m21.75,43.3c-0.18,-0.02 -0.34,-0.04 -0.5,-0.03c-0.32,0.01 -0.61,0.09 -0.83,0.32c-0.22,0.23 -0.37,0.58 -0.44,1.11c-0.02,0.17 -0.03,0.33 -0.03,0.47c0.01,0.46 0.16,0.78 0.42,0.98c0.25,0.2 0.59,0.29 0.96,0.34l1.26,0.17l0.04,-0.31l-0.1,-0.01c-0.12,-0.01 -0.19,-0.04 -0.21,-0.06c-0.02,-0.02 -0.03,-0.03 -0.04,-0.11c0,-0.04 0,-0.1 0.01,-0.18l0.25,-1.92c0.02,-0.13 0.04,-0.22 0.06,-0.25c0.02,-0.03 0.03,-0.04 0.11,-0.04c0.04,0 0.09,0 0.15,0.01l0.1,0.01l0.05,-0.32l-0.1,-0.01l-1.16,-0.17l0,0zm0.11,0.65l-0.26,1.92c-0.01,0.11 -0.03,0.17 -0.05,0.18c-0.01,0.01 -0.01,0.02 -0.06,0.02c-0.03,0 -0.06,0 -0.11,-0.01c-0.29,-0.04 -0.47,-0.12 -0.57,-0.23c-0.1,-0.11 -0.15,-0.26 -0.15,-0.48c0,-0.16 0.01,-0.35 0.04,-0.57c0.05,-0.39 0.12,-0.67 0.24,-0.84c0.11,-0.17 0.25,-0.25 0.51,-0.26l0,0c0.07,0 0.15,0 0.24,0.01c0.09,0.01 0.14,0.03 0.15,0.04c0.01,0.01 0.02,0.02 0.02,0.06c0.01,0.05 0,0.1 0,0.16" class="st3"/>
       <path id="svg_74" fill="#fff" d="m29.84,44.98l0,0.08c0,0.03 0,0.06 0,0.09c0,0.12 -0.02,0.2 -0.07,0.25c-0.05,0.06 -0.16,0.11 -0.35,0.16l-0.07,0.02l-0.45,-2.11c-0.02,-0.09 -0.03,-0.15 -0.03,-0.2c0,-0.07 0.01,-0.08 0.03,-0.1c0.02,-0.02 0.09,-0.05 0.2,-0.07l0.1,-0.02l-0.07,-0.31l-0.1,0.02l-1.34,0.28l0.06,0.31l0.1,-0.02c0.07,-0.02 0.12,-0.02 0.16,-0.02c0.06,0 0.07,0.01 0.1,0.04c0.03,0.03 0.05,0.11 0.08,0.23l0.45,2.11l-0.07,0.01c-0.1,0.02 -0.17,0.03 -0.24,0.03c-0.11,0 -0.17,-0.03 -0.22,-0.07c-0.05,-0.05 -0.09,-0.13 -0.13,-0.24l-0.03,-0.08l-0.32,0.07l0.22,0.88l2.44,-0.52l-0.15,-0.89l-0.3,0.07l0,0z" class="st3"/>
       <path id="svg_75" fill="#fff" d="m26.86,46.19c-0.02,0 -0.04,0 -0.06,0c-0.13,0 -0.17,-0.02 -0.19,-0.04c-0.02,-0.02 -0.05,-0.1 -0.06,-0.26l-0.09,-1.5c-0.02,-0.33 -0.11,-0.6 -0.3,-0.79c-0.2,-0.19 -0.48,-0.27 -0.86,-0.26c-0.03,0 -0.06,0 -0.09,0c-0.46,0.03 -0.75,0.16 -0.92,0.38c-0.17,0.21 -0.21,0.47 -0.2,0.73c0,0.03 0,0.05 0,0.08l0.09,1.5c0,0.02 0,0.05 0,0.07c0,0.14 -0.02,0.19 -0.04,0.21c-0.02,0.02 -0.09,0.05 -0.23,0.05l-0.1,0.01l0.02,0.32l1.3,-0.08l-0.02,-0.32l-0.1,0.01c-0.02,0 -0.04,0 -0.06,0c-0.13,0 -0.17,-0.02 -0.19,-0.04c-0.02,-0.02 -0.05,-0.1 -0.06,-0.26l-0.09,-1.5c0,-0.03 0,-0.06 0,-0.09c-0.01,-0.24 0.03,-0.39 0.11,-0.48c0.08,-0.09 0.21,-0.15 0.45,-0.16c0.02,0 0.03,0 0.04,0c0.24,0 0.35,0.06 0.42,0.17c0.07,0.11 0.11,0.29 0.12,0.5l0.09,1.5c0,0.02 0,0.04 0,0.06c0,0.14 -0.02,0.2 -0.04,0.22c-0.02,0.02 -0.08,0.05 -0.23,0.05l-0.1,0.01l0.02,0.32l1.47,-0.09l-0.02,-0.32l-0.08,0l0,0z" class="st3"/>
       <path id="svg_76" fill="#fff" d="m31.13,6.15c0.22,0.09 0.44,0.15 0.64,0.16c0.01,0 0.01,0 0.02,0c0.38,0.02 0.73,-0.16 0.89,-0.58c0.04,-0.1 0.06,-0.19 0.06,-0.28c0.01,-0.21 -0.06,-0.4 -0.17,-0.58c-0.11,-0.18 -0.29,-0.37 -0.44,-0.56c-0.15,-0.19 -0.26,-0.38 -0.25,-0.52c0,-0.03 0.01,-0.06 0.02,-0.09c0.05,-0.11 0.15,-0.18 0.32,-0.17c0.07,0 0.15,0.02 0.23,0.06c0.15,0.06 0.23,0.14 0.28,0.22c0.05,0.08 0.06,0.17 0.06,0.26c0,0.05 -0.01,0.11 -0.03,0.16l-0.02,0.09l0.3,0.12l0.04,-0.1l0.26,-0.74l-0.07,-0.04c-0.12,-0.07 -0.38,-0.24 -0.67,-0.36c-0.19,-0.08 -0.38,-0.12 -0.54,-0.13c-0.38,-0.03 -0.7,0.16 -0.83,0.51c-0.04,0.09 -0.06,0.19 -0.06,0.28c-0.01,0.27 0.1,0.5 0.25,0.7c0.13,0.18 0.28,0.35 0.39,0.5c0.11,0.16 0.18,0.3 0.17,0.43c0,0.04 -0.01,0.08 -0.03,0.13c-0.06,0.15 -0.18,0.23 -0.38,0.22c-0.07,0 -0.15,-0.02 -0.24,-0.06c-0.19,-0.08 -0.29,-0.18 -0.35,-0.28c-0.05,-0.1 -0.07,-0.21 -0.06,-0.32c0,-0.06 0.01,-0.12 0.02,-0.17l0.01,-0.08l-0.29,-0.12l-0.32,0.87l0.06,0.05c0.13,0.08 0.38,0.28 0.73,0.42" class="st3"/>
       <path id="svg_77" fill="#fff" d="m44.62,15.82c-0.03,0.03 -0.1,0.06 -0.21,0.1l-1.81,0.68c-0.11,0.04 -0.19,0.06 -0.23,0.06c-0.04,0 -0.04,-0.01 -0.07,-0.03c-0.02,-0.03 -0.06,-0.09 -0.09,-0.18l-0.04,-0.1l-0.3,0.11l0.04,0.1l0.48,1.28l0.3,-0.11l-0.04,-0.1c-0.04,-0.09 -0.05,-0.16 -0.05,-0.2c0,-0.04 0.01,-0.04 0.04,-0.07c0.03,-0.03 0.1,-0.06 0.21,-0.1l1.82,-0.68c0.11,-0.04 0.19,-0.06 0.23,-0.06c0.04,0 0.05,0.01 0.07,0.03c0.02,0.03 0.06,0.09 0.09,0.18l0.04,0.1l0.3,-0.11l-0.52,-1.38l-0.3,0.12l0.04,0.09c0.04,0.1 0.05,0.16 0.05,0.2c-0.01,0.03 -0.01,0.04 -0.05,0.07" class="st3"/>
       <path id="svg_78" fill="#fff" d="m45.45,18.06c0,0.06 -0.01,0.06 -0.04,0.09c-0.03,0.03 -0.11,0.06 -0.23,0.08l-1.89,0.46c-0.09,0.02 -0.16,0.03 -0.21,0.03c-0.06,0 -0.07,-0.01 -0.09,-0.03c-0.02,-0.03 -0.05,-0.09 -0.07,-0.2l-0.03,-0.1l-0.31,0.08l0.02,0.1l0.54,2.23l0.84,-0.17l-0.08,-0.33l-0.1,0.02c-0.05,0.01 -0.09,0.01 -0.12,0.01c-0.08,0 -0.13,-0.02 -0.18,-0.07c-0.05,-0.05 -0.1,-0.13 -0.13,-0.28l-0.1,-0.4c-0.02,-0.06 -0.02,-0.11 -0.02,-0.13c0.01,-0.03 -0.01,-0.01 0.01,-0.02c0.02,-0.01 0.08,-0.04 0.19,-0.06l0.81,-0.19l0.11,0.47c0.02,0.06 0.02,0.11 0.02,0.14c0,0.06 -0.01,0.06 -0.03,0.08c-0.03,0.02 -0.09,0.05 -0.19,0.07l-0.1,0.02l0.07,0.32l1.11,-0.27l-0.08,-0.32l-0.1,0.02c-0.08,0.02 -0.14,0.03 -0.18,0.03c-0.05,0 -0.05,-0.01 -0.06,-0.02c-0.02,-0.02 -0.04,-0.08 -0.06,-0.17l-0.11,-0.47l0.68,-0.16c0.07,-0.02 0.12,-0.02 0.15,-0.02c0.04,0 0.04,0.01 0.06,0.02c0.01,0.01 0.03,0.05 0.05,0.12l0.07,0.28c0.03,0.1 0.03,0.18 0.03,0.25c0,0.11 -0.03,0.16 -0.07,0.2c-0.04,0.04 -0.11,0.07 -0.19,0.1l-0.09,0.03l0.08,0.32l0.83,-0.24l-0.55,-2.26l-0.31,0.08l0.02,0.1c0.02,0.06 0.03,0.12 0.03,0.16" class="st3"/>
       <path id="svg_79" fill="#fff" d="m45.66,25.3l0.09,0.02c0.14,0.03 0.23,0.07 0.28,0.12c0.05,0.05 0.08,0.13 0.08,0.29c0,0.04 0,0.08 -0.01,0.13l0,0.08l-2.15,-0.19c-0.15,-0.01 -0.23,-0.04 -0.26,-0.06c-0.02,-0.02 -0.04,-0.04 -0.04,-0.14c0,-0.03 0,-0.06 0.01,-0.1l0.01,-0.1l-0.32,-0.02l-0.01,0.1l-0.12,1.36l0.32,0.03l0.01,-0.1c0.01,-0.13 0.03,-0.2 0.05,-0.22c0.02,-0.02 0.05,-0.04 0.16,-0.04c0.04,0 0.08,0 0.13,0.01l2.15,0.19l-0.01,0.07c-0.02,0.23 -0.07,0.34 -0.13,0.39c-0.06,0.06 -0.16,0.08 -0.32,0.09l-0.09,0l-0.03,0.32l0.9,0.05l0.22,-2.48l-0.9,-0.11l-0.02,0.31l0,0z" class="st3"/>
       <path id="svg_80" fill="#fff" d="m38.83,10.87c-0.11,-0.01 -0.17,-0.04 -0.28,-0.18l-0.06,-0.08l-0.25,0.2l0.06,0.08l0.74,0.94l0.25,-0.2l-0.06,-0.08c-0.09,-0.11 -0.12,-0.18 -0.11,-0.2c0,-0.01 0,-0.01 0.03,-0.04c0.03,-0.02 0.07,-0.04 0.12,-0.06l0,0l0.4,-0.13l0.63,0.8l-0.23,0.38c-0.03,0.05 -0.06,0.08 -0.09,0.11c-0.01,0.01 -0.01,0.01 -0.02,0.01c0,0 -0.03,-0.01 -0.06,-0.04c-0.03,-0.03 -0.07,-0.07 -0.11,-0.12l-0.06,-0.08l-0.25,0.2l0.92,1.17l0.25,-0.2l-0.06,-0.08c-0.1,-0.13 -0.13,-0.2 -0.13,-0.27c0,-0.07 0.04,-0.16 0.12,-0.3l1.41,-2.32l-0.32,-0.4l-2.53,0.8c-0.14,0.08 -0.24,0.1 -0.31,0.09m2.24,-0.18l-0.54,0.88l-0.44,-0.56l0.98,-0.32l0,0z" class="st3"/>
       <path id="svg_81" fill="#fff" d="m43.01,13.08l-1.7,0.94c-0.12,0.07 -0.2,0.09 -0.24,0.09c-0.03,0 -0.04,0 -0.07,-0.03c-0.03,-0.03 -0.06,-0.08 -0.11,-0.16l-0.05,-0.09l-0.28,0.15l0.05,0.09l0.66,1.19l0.28,-0.15l-0.05,-0.09c-0.06,-0.1 -0.08,-0.17 -0.08,-0.2c0,-0.03 0,-0.04 0.04,-0.07c0.03,-0.03 0.09,-0.08 0.18,-0.13l0.61,-0.34l0.03,0.06c0.11,0.19 0.23,0.4 0.39,0.57c0.16,0.17 0.37,0.3 0.63,0.3c0.15,0 0.31,-0.04 0.48,-0.14c0.33,-0.18 0.48,-0.45 0.47,-0.74c0,-0.23 -0.09,-0.47 -0.21,-0.7l-0.67,-1.2l-0.28,0.15l0.05,0.09c0.06,0.1 0.08,0.17 0.08,0.2c0,0.03 0,0.04 -0.04,0.07c-0.02,0.05 -0.08,0.09 -0.17,0.14m0.29,0.53l0.05,0.09c0.1,-0.06 0.16,-0.08 0.18,-0.08c0.01,0 0.01,0 0.03,0.01c0.02,0.01 0.04,0.05 0.07,0.11c0.08,0.14 0.12,0.26 0.12,0.35c0,0.12 -0.06,0.23 -0.31,0.37c-0.14,0.08 -0.25,0.11 -0.33,0.11c-0.1,0 -0.18,-0.04 -0.25,-0.12c-0.07,-0.07 -0.14,-0.19 -0.21,-0.31l-0.03,-0.05l0.73,-0.4l-0.05,-0.08l0,0z" class="st3"/>
       <path id="svg_82" fill="#fff" d="m45.86,28.42c-0.02,0.11 -0.05,0.18 -0.07,0.2c-0.02,0.02 -0.03,0.03 -0.1,0.03c-0.05,0 -0.11,-0.01 -0.2,-0.03l-1.9,-0.4c-0.13,-0.03 -0.2,-0.05 -0.24,-0.08c-0.03,-0.03 -0.03,-0.03 -0.04,-0.1c0,-0.04 0.01,-0.09 0.02,-0.17l0.02,-0.1l-0.31,-0.06l-0.02,0.1l-0.28,1.33l0.31,0.07l0.02,-0.1c0.02,-0.11 0.05,-0.18 0.07,-0.2c0.02,-0.02 0.03,-0.03 0.1,-0.03c0.05,0 0.11,0.01 0.2,0.03l1.9,0.4c0.13,0.03 0.2,0.06 0.23,0.08c0.03,0.03 0.04,0.03 0.04,0.1c0,0.04 -0.01,0.09 -0.02,0.16l-0.02,0.1l0.31,0.06l0.3,-1.43l-0.31,-0.07l-0.01,0.11l0,0z" class="st3"/>
       <path id="svg_83" fill="#fff" d="m46.15,21.34c0,0.03 0,0.06 0,0.09c0,0.11 -0.02,0.14 -0.04,0.15c-0.03,0.02 -0.11,0.05 -0.26,0.05l-1.94,0.11c-0.04,0 -0.08,0 -0.11,0c-0.12,0 -0.16,-0.02 -0.17,-0.04c-0.02,-0.02 -0.04,-0.09 -0.05,-0.22l-0.01,-0.1l-0.32,0.01l0.01,0.1l0.07,1.15l0.32,-0.02l-0.01,-0.1c0,-0.03 0,-0.07 0,-0.09c0,-0.11 0.02,-0.13 0.04,-0.15c0.03,-0.02 0.11,-0.04 0.26,-0.05l1.65,-0.09l-2.21,1.46l0.03,0.59l2.57,-0.15c0.04,0 0.08,0 0.12,0c0.12,0 0.15,0.02 0.17,0.04c0.02,0.02 0.04,0.09 0.05,0.23l0.01,0.1l0.32,-0.02l-0.07,-1.26l-0.32,0.02l0.01,0.1c0,0.03 0,0.07 0,0.09c0,0.11 -0.02,0.13 -0.04,0.15c-0.03,0.02 -0.11,0.05 -0.26,0.05l-1.53,0.1l2.08,-1.38l-0.06,-1.04l-0.32,0.02l0.01,0.1l0,0z" class="st3"/>
       <path id="svg_84" fill="#fff" d="m42.9,29.99c0,-0.05 0.01,-0.12 0.05,-0.2l0.04,-0.1l-0.3,-0.12l-0.04,0.1l-0.43,1.12l0.3,0.12l0.04,-0.1c0.03,-0.09 0.06,-0.15 0.09,-0.17c0.03,-0.03 0.03,-0.03 0.04,-0.03c0.01,0 0.02,0 0.03,0.01c0.04,0.01 0.07,0.04 0.11,0.08l0.32,0.28l-0.38,0.96l-0.45,-0.01l0,0c0,0 -0.01,0 -0.01,0c-0.04,0 -0.09,-0.01 -0.12,-0.02c-0.02,-0.01 -0.01,0 -0.02,-0.04c0,-0.04 0.02,-0.12 0.05,-0.2l0.04,-0.09l-0.3,-0.12l-0.53,1.39l0.3,0.11l0.04,-0.1c0.05,-0.14 0.1,-0.2 0.16,-0.24c0.06,-0.04 0.15,-0.06 0.32,-0.06l0.01,0l2.71,0.03l0.18,-0.48l-1.98,-1.76c-0.22,-0.16 -0.27,-0.26 -0.27,-0.36m0.56,1.28l0.77,0.69l-1.02,-0.02l0.25,-0.67l0,0z" class="st3"/>
       <path id="svg_85" fill="#fff" d="m43.54,34.85c-0.05,0.07 -0.08,0.12 -0.11,0.15c-0.03,0.03 -0.04,0.03 -0.07,0.03c-0.04,0 -0.12,-0.03 -0.24,-0.11l-1.64,-1.03c-0.09,-0.05 -0.14,-0.1 -0.17,-0.13c-0.03,-0.04 -0.03,-0.05 -0.03,-0.07c0,-0.03 0.02,-0.1 0.09,-0.2l0.05,-0.09l-0.27,-0.17l-0.05,0.09l-1.22,1.94l0.71,0.49l0.18,-0.28l-0.08,-0.06c-0.13,-0.09 -0.18,-0.17 -0.18,-0.26c0,-0.07 0.03,-0.16 0.11,-0.28l0.22,-0.35c0.03,-0.05 0.06,-0.09 0.08,-0.11c0.01,-0.01 0.01,-0.01 0.01,-0.01c0,0 0,0 0,0c0.01,0 0.08,0.02 0.19,0.09l0.7,0.44l-0.26,0.41c-0.04,0.06 -0.07,0.1 -0.1,0.12c-0.03,0.02 -0.04,0.02 -0.06,0.02c-0.03,0 -0.1,-0.02 -0.19,-0.09l-0.09,-0.05l-0.17,0.28l0.96,0.6l0.17,-0.28l-0.09,-0.05c-0.07,-0.05 -0.12,-0.08 -0.15,-0.11c-0.02,-0.03 -0.02,-0.03 -0.03,-0.05c0,-0.02 0.02,-0.08 0.08,-0.17l0.26,-0.41l0.59,0.37c0.06,0.04 0.11,0.07 0.13,0.1c0.02,0.03 0.02,0.03 0.02,0.04c0,0.01 -0.01,0.06 -0.05,0.12l-0.15,0.25c-0.16,0.25 -0.26,0.29 -0.34,0.29c-0.06,0 -0.13,-0.03 -0.21,-0.07l-0.08,-0.04l-0.18,0.28l0.75,0.43l1.23,-1.98l-0.27,-0.17l-0.05,0.08l0,0z" class="st3"/>
       <path id="svg_86" fill="#fff" d="m36.63,5.94c0.15,-0.09 0.21,-0.29 0.12,-0.44c-0.09,-0.15 -0.28,-0.21 -0.44,-0.12c-0.15,0.09 -0.21,0.28 -0.12,0.44c0.09,0.15 0.29,0.21 0.44,0.12" class="st3"/>
       <path id="svg_87" fill="#fff" d="m34.77,7.98c0.09,0.15 0.28,0.21 0.44,0.12c0.15,-0.09 0.21,-0.29 0.12,-0.44c-0.09,-0.15 -0.28,-0.21 -0.44,-0.12c-0.16,0.09 -0.21,0.29 -0.12,0.44" class="st3"/>
       <path id="svg_88" fill="#fff" d="m36.66,7.9c0,-0.18 -0.14,-0.32 -0.32,-0.32c-0.17,0 -0.32,0.14 -0.32,0.32c0,0.18 0.15,0.32 0.32,0.32c0.17,0 0.31,-0.14 0.32,-0.32" class="st3"/>
       <path id="svg_89" fill="#fff" d="m35.18,5.9c0.18,0 0.32,-0.14 0.32,-0.32c0,-0.18 -0.14,-0.32 -0.32,-0.32c-0.17,0 -0.32,0.14 -0.32,0.32c0,0.18 0.15,0.32 0.32,0.32" class="st3"/>
       <path id="svg_90" fill="#fff" d="m34.31,6.94c0.15,0.09 0.35,0.04 0.44,-0.11c0.09,-0.15 0.04,-0.35 -0.11,-0.44c-0.15,-0.09 -0.35,-0.03 -0.44,0.11c-0.1,0.15 -0.05,0.35 0.11,0.44" class="st3"/>
       <path id="svg_91" fill="#fff" d="m36.89,7.1c0.15,0.09 0.35,0.04 0.44,-0.11c0.09,-0.15 0.04,-0.35 -0.11,-0.44c-0.15,-0.09 -0.35,-0.03 -0.44,0.11c-0.09,0.15 -0.04,0.35 0.11,0.44" class="st3"/>
       <path id="svg_92" fill="#fff" d="m35.05,6.26c-0.26,0.39 -0.17,0.91 0.22,1.18c0.39,0.26 0.91,0.17 1.18,-0.22c0.26,-0.39 0.17,-0.91 -0.22,-1.18c-0.38,-0.26 -0.91,-0.17 -1.18,0.22m1.08,-0.06c0.3,0.21 0.38,0.61 0.17,0.91c-0.2,0.3 -0.61,0.38 -0.91,0.17c-0.3,-0.21 -0.38,-0.61 -0.17,-0.91c0.2,-0.3 0.61,-0.38 0.91,-0.17" class="st3"/>
       <path id="svg_93" fill="#fff" d="m15.1,4.09c0.17,0.01 0.33,-0.13 0.34,-0.3c0.01,-0.18 -0.13,-0.33 -0.3,-0.34c-0.18,-0.01 -0.33,0.13 -0.34,0.3c-0.01,0.18 0.12,0.34 0.3,0.34" class="st3"/>
       <path id="svg_94" fill="#fff" d="m16.49,6.16c0.01,-0.18 -0.13,-0.33 -0.3,-0.34c-0.18,-0.01 -0.33,0.13 -0.34,0.3c-0.01,0.18 0.13,0.33 0.3,0.34c0.17,0.01 0.33,-0.13 0.34,-0.3" class="st3"/>
       <path id="svg_95" fill="#fff" d="m16.66,4.92c-0.09,0.14 -0.05,0.35 0.09,0.44c0.15,0.1 0.35,0.05 0.44,-0.1c0.1,-0.15 0.05,-0.35 -0.09,-0.44c-0.14,-0.09 -0.34,-0.05 -0.44,0.1" class="st3"/>
       <path id="svg_96" fill="#fff" d="m14.18,5.09c0.15,0.1 0.35,0.05 0.44,-0.1c0.1,-0.15 0.05,-0.35 -0.09,-0.44c-0.15,-0.09 -0.35,-0.05 -0.44,0.09c-0.1,0.15 -0.06,0.35 0.09,0.45" class="st3"/>
       <path id="svg_97" fill="#fff" d="m14.6,6.15c0.08,0.16 0.27,0.22 0.43,0.14c0.16,-0.08 0.22,-0.27 0.14,-0.43c-0.08,-0.15 -0.27,-0.22 -0.43,-0.14c-0.16,0.08 -0.22,0.28 -0.14,0.43" class="st3"/>
       <path id="svg_98" fill="#fff" d="m16.55,4.19c0.16,-0.08 0.22,-0.27 0.14,-0.43c-0.08,-0.15 -0.27,-0.22 -0.43,-0.14c-0.16,0.08 -0.22,0.28 -0.14,0.43c0.08,0.16 0.27,0.22 0.43,0.14" class="st3"/>
       <path id="svg_99" fill="#fff" d="m15.97,5.74c0.43,-0.18 0.63,-0.68 0.45,-1.11c-0.18,-0.43 -0.68,-0.63 -1.11,-0.45c-0.43,0.18 -0.63,0.68 -0.45,1.11c0.18,0.43 0.68,0.63 1.11,0.45m-0.59,-1.39c0.33,-0.14 0.72,0.01 0.86,0.35c0.14,0.33 -0.01,0.72 -0.35,0.86c-0.33,0.14 -0.72,-0.01 -0.86,-0.35c-0.14,-0.33 0.02,-0.71 0.35,-0.86" class="st3"/>
       <path id="svg_100" fill="#fff" d="m33.29,4.8c0.03,0.17 0.2,0.29 0.37,0.27c0.17,-0.03 0.29,-0.19 0.27,-0.37c-0.03,-0.17 -0.19,-0.29 -0.37,-0.27c-0.17,0.03 -0.3,0.2 -0.27,0.37" class="st3"/>
       <path id="svg_101" fill="#fff" d="m33.38,6.05c0.06,-0.16 -0.02,-0.35 -0.18,-0.41c-0.16,-0.06 -0.35,0.02 -0.41,0.18c-0.06,0.16 0.02,0.35 0.18,0.41c0.16,0.06 0.34,-0.02 0.41,-0.18" class="st3"/>
       <path id="svg_102" fill="#fff" d="m24.14,3.48c0.17,-0.03 0.29,-0.19 0.27,-0.37c-0.03,-0.17 -0.19,-0.29 -0.37,-0.27c-0.17,0.03 -0.29,0.19 -0.27,0.37c0.03,0.17 0.2,0.29 0.37,0.27" class="st3"/>
       <path id="svg_103" fill="#fff" d="m16.91,13.33c-0.2,0.35 -0.25,0.75 -0.15,1.13c0.1,0.39 0.35,0.71 0.7,0.91c0.37,0.22 1.99,0.66 3.35,1.01c0.04,-0.04 0.13,-0.13 0.28,-0.23c-1.5,-0.39 -3.14,-0.84 -3.48,-1.04c-0.28,-0.16 -0.48,-0.42 -0.56,-0.73c-0.08,-0.31 -0.04,-0.63 0.12,-0.91c0.21,-0.37 0.61,-0.6 1.04,-0.6c0.21,0 0.42,0.06 0.6,0.16c0.38,0.22 1.82,1.65 2.98,2.84c0.11,-0.02 0.23,-0.03 0.35,-0.03c0.01,0 0.02,0 0.03,0c-1.02,-1.05 -2.74,-2.8 -3.21,-3.06c-0.23,-0.13 -0.48,-0.2 -0.75,-0.2c-0.54,0.01 -1.03,0.29 -1.3,0.75" class="st3"/>
       <path id="svg_104" fill="#fff" d="m22.59,15.9c0.16,0.03 0.29,0.08 0.42,0.14c0,-0.05 0,-0.1 0,-0.15c-1.24,-1.2 -3,-2.94 -3.24,-3.36c-0.16,-0.28 -0.2,-0.6 -0.12,-0.91c0.08,-0.31 0.28,-0.57 0.56,-0.73c0.18,-0.11 0.39,-0.16 0.6,-0.16c0.43,0 0.83,0.23 1.04,0.6c0.23,0.4 0.81,2.56 1.22,4.21c0,-0.01 0.01,-0.03 0.01,-0.04c0.05,-0.14 0.11,-0.27 0.18,-0.39c-0.36,-1.43 -0.91,-3.49 -1.16,-3.92c-0.27,-0.46 -0.76,-0.75 -1.29,-0.75c-0.26,0 -0.52,0.07 -0.75,0.2c-0.35,0.2 -0.59,0.52 -0.7,0.91c-0.1,0.39 -0.05,0.79 0.15,1.13c0.27,0.46 2.03,2.21 3.08,3.22" class="st3"/>
       <path id="svg_105" fill="#fff" d="m23.69,14.51c-0.4,-1.44 -0.79,-2.97 -0.79,-3.36c0,-0.66 0.54,-1.2 1.2,-1.2s1.2,0.54 1.2,1.2c0,0.36 -0.36,1.77 -0.74,3.15c0.07,0.03 0.17,0.07 0.27,0.13c0.36,-1.32 0.76,-2.86 0.76,-3.28c0,-0.82 -0.67,-1.49 -1.49,-1.49c-0.82,0 -1.49,0.67 -1.49,1.49c0,0.46 0.47,2.25 0.86,3.63c0.07,-0.11 0.15,-0.2 0.22,-0.27" class="st3"/>
       <path id="svg_106" fill="#fff" d="m25.32,14.75c0.38,-1.48 0.82,-3.08 1.02,-3.42c0.21,-0.37 0.61,-0.6 1.04,-0.6c0.21,0 0.42,0.06 0.6,0.16c0.28,0.16 0.48,0.42 0.56,0.73c0.08,0.31 0.04,0.63 -0.12,0.91c-0.2,0.35 -1.44,1.61 -2.57,2.71l0.09,0c0.17,-0.15 0.36,-0.26 0.59,-0.32c0.03,-0.01 0.06,-0.01 0.08,-0.02c0.91,-0.9 1.87,-1.89 2.06,-2.22c0.2,-0.35 0.25,-0.75 0.15,-1.13c-0.1,-0.39 -0.35,-0.71 -0.7,-0.91c-0.23,-0.13 -0.48,-0.2 -0.75,-0.2c-0.53,0 -1.03,0.29 -1.29,0.75c-0.22,0.38 -0.67,2.02 -1.02,3.39c0.09,0.05 0.18,0.11 0.26,0.17" class="st3"/>
       <path id="svg_107" fill="#fff" d="m27.02,14.84c0.06,0 0.12,-0.01 0.18,-0.01c0.08,0 0.16,0.01 0.23,0.01c0.86,-0.86 1.68,-1.64 1.95,-1.8c0.18,-0.11 0.39,-0.16 0.6,-0.16c0.43,0 0.83,0.23 1.04,0.6c0.33,0.57 0.13,1.31 -0.44,1.64c-0.25,0.14 -1.17,0.42 -2.23,0.71l-0.08,0.09c-0.06,0.07 -0.15,0.18 -0.25,0.3c1.18,-0.32 2.39,-0.66 2.71,-0.84c0.71,-0.41 0.96,-1.33 0.55,-2.04c-0.27,-0.46 -0.76,-0.75 -1.29,-0.75c-0.26,0 -0.52,0.07 -0.75,0.2c-0.34,0.19 -1.32,1.14 -2.22,2.05" class="st3"/>
       <path id="svg_108" fill="#fff" d="m23.77,23.34c-0.09,-0.15 -0.28,-0.21 -0.44,-0.12c-0.15,0.09 -0.21,0.28 -0.12,0.44c0.09,0.15 0.28,0.21 0.44,0.12c0.15,-0.09 0.21,-0.29 0.12,-0.44" class="st3"/>
       <path id="svg_109" fill="#fff" d="m24.68,26.8c0.15,-0.09 0.21,-0.29 0.12,-0.44c-0.09,-0.15 -0.28,-0.21 -0.44,-0.12c-0.15,0.09 -0.21,0.28 -0.12,0.44c0.09,0.15 0.29,0.21 0.44,0.12" class="st3"/>
       <path id="svg_110" fill="#fff" d="m24.07,27.31c0.15,-0.09 0.21,-0.29 0.12,-0.44c-0.09,-0.15 -0.28,-0.21 -0.44,-0.12c-0.15,0.09 -0.21,0.28 -0.12,0.44c0.09,0.15 0.29,0.21 0.44,0.12" class="st3"/>
       <path id="svg_111" fill="#fff" d="m25.38,26.43c0.15,-0.09 0.21,-0.29 0.12,-0.44c-0.09,-0.15 -0.28,-0.21 -0.44,-0.12c-0.15,0.09 -0.21,0.28 -0.12,0.44c0.08,0.15 0.28,0.21 0.44,0.12" class="st3"/>
       <path id="svg_112" fill="#fff" d="m25.84,25.05c0.09,0.15 0.28,0.21 0.44,0.12c0.15,-0.09 0.21,-0.29 0.12,-0.44c-0.09,-0.15 -0.28,-0.21 -0.44,-0.12c-0.15,0.09 -0.21,0.29 -0.12,0.44" class="st3"/>
       <path id="svg_113" fill="#fff" d="m24.21,24.62c-0.15,0.09 -0.21,0.28 -0.12,0.44c0.09,0.15 0.28,0.21 0.44,0.12c0.15,-0.09 0.21,-0.29 0.12,-0.44c-0.09,-0.16 -0.28,-0.21 -0.44,-0.12" class="st3"/>
       <path id="svg_114" fill="#fff" d="m26.4,24.42c0.15,-0.09 0.21,-0.29 0.12,-0.44c-0.09,-0.15 -0.28,-0.21 -0.44,-0.12c-0.15,0.09 -0.21,0.28 -0.12,0.44c0.09,0.15 0.29,0.21 0.44,0.12" class="st3"/>
       <path id="svg_115" fill="#fff" d="m24.35,23.99c-0.09,-0.15 -0.28,-0.21 -0.44,-0.12c-0.15,0.09 -0.21,0.28 -0.12,0.44c0.09,0.15 0.28,0.21 0.44,0.12c0.16,-0.09 0.21,-0.3 0.12,-0.44" class="st3"/>
       <path id="svg_116" fill="#fff" d="m23.04,20.47c0.04,0.09 0.12,0.37 0.09,0.57c-0.04,0.24 -0.15,0.41 -0.15,0.41l0.24,0.16c0.01,-0.01 0.14,-0.21 0.19,-0.52c0.06,-0.32 -0.1,-0.71 -0.11,-0.73l-0.26,0.11l0,0z" class="st3"/>
       <path id="svg_117" fill="#fff" d="m27.88,15.39c-0.02,-0.01 -0.57,-0.22 -1.23,-0.04c-0.54,0.15 -0.72,0.65 -0.78,0.9l-0.41,-0.04c0.01,-0.21 0,-0.59 -0.2,-0.87c-0.27,-0.39 -0.97,-0.65 -1,-0.67l-0.09,-0.03l-0.07,0.07c-0.02,0.02 -0.47,0.47 -0.62,0.94c-0.11,0.34 0,0.7 0.09,0.9l-0.36,0.17c-0.13,-0.12 -0.43,-0.34 -0.87,-0.4c-0.78,-0.1 -1.21,0.37 -1.23,0.39l-0.09,0.1l1.25,1.25l0.41,0.74c0.01,0.08 0.01,0.19 0,0.32c-0.01,0.28 -0.36,1.23 -0.59,1.8c-0.13,0.32 -0.11,0.65 0.04,0.9c0.11,0.17 0.34,0.39 0.8,0.42c0.17,0.01 0.32,-0.03 0.44,-0.09l-0.1,0.31l0.2,0.35l0.42,-1.3c0.02,-0.04 0.03,-0.07 0.04,-0.11c0.01,0.02 0.02,0.03 0.04,0.05c0.55,0.66 1,0.89 1.26,0.89c0.02,0 0.04,0 0.05,0c0.08,-0.01 0.19,-0.04 0.32,-0.1l-0.41,1.16l0.5,0.03l0.07,-0.29l-0.16,-0.01l0.29,-0.84c0.14,0.06 0.35,0.12 0.6,0.08c0.51,-0.1 0.79,-0.75 0.77,-1.33c-0.02,-0.54 -0.4,-1.24 -0.44,-1.32c-0.01,-0.05 -0.02,-0.1 -0.03,-0.15c-0.07,-0.33 -0.05,-0.53 -0.03,-0.73c0.01,-0.14 0.02,-0.28 0.01,-0.45l0.18,-0.92c0.07,-0.34 0.22,-0.65 0.29,-0.82c0.16,-0.38 0.69,-0.99 0.69,-0.99l0.14,-0.16l-0.19,-0.11l0,0zm-5.26,2.67c0.27,-0.18 1.07,-0.66 2.15,-0.72c0.15,-0.01 0.29,-0.01 0.43,-0.01c0.77,0 1.24,0.12 1.44,0.18l-0.1,0.54c-0.21,-0.06 -0.59,-0.14 -1.08,-0.14c-0.18,0 -0.36,0.01 -0.53,0.03c-0.8,0.1 -1.71,0.47 -2.04,0.61l-0.27,-0.49l0,0zm1.01,3.33c-0.11,0.26 -0.32,0.57 -0.66,0.55c-0.27,-0.02 -0.46,-0.12 -0.57,-0.28c-0.1,-0.17 -0.11,-0.4 -0.02,-0.63c0.02,-0.06 0.59,-1.47 0.61,-1.9c0,-0.11 0,-0.21 0,-0.29c0.15,-0.06 0.46,-0.19 0.84,-0.32c0.02,0.12 0.02,0.27 -0.03,0.41c-0.12,0.32 -0.42,0.88 -0.42,0.89l-0.02,0.03l0,0.04c0,0.03 0.02,0.59 0.37,1.19l-0.1,0.31l0,0zm1.62,0.63c-0.08,0.01 -0.47,-0.1 -1.04,-0.78c-0.47,-0.55 -0.54,-1.18 -0.55,-1.33c0.07,-0.13 0.31,-0.6 0.42,-0.89c0.08,-0.21 0.07,-0.44 0.04,-0.6c0.28,-0.08 0.58,-0.15 0.86,-0.19c0.16,-0.02 0.33,-0.03 0.49,-0.03c0.47,0 0.84,0.08 1.02,0.13c0.02,0.17 0,0.31 -0.01,0.44c-0.01,0.09 -0.02,0.19 -0.02,0.3l-0.73,-0.01l0.11,1.13l-0.39,0.09l0.31,0.12l0.28,-0.11l-0.18,-0.97l0.63,0.16c0.01,0.04 0.01,0.07 0.02,0.11c0.1,0.48 0.03,0.63 -0.22,1.18c-0.04,0.1 -0.09,0.21 -0.15,0.33c-0.31,0.74 -0.69,0.89 -0.89,0.92m1.54,-1.7c0.09,0.22 0.17,0.48 0.18,0.71c0.02,0.49 -0.22,0.96 -0.53,1.02c-0.23,0.05 -0.42,-0.05 -0.49,-0.09c0.16,-0.16 0.32,-0.39 0.46,-0.72c0.05,-0.12 0.1,-0.23 0.15,-0.33c0.1,-0.25 0.18,-0.42 0.23,-0.59m0.18,-3.81c-0.1,0.24 -0.16,0.39 -0.26,0.72c-0.24,-0.07 -0.72,-0.19 -1.5,-0.19c-0.15,0 -0.3,0 -0.45,0.01c-1.16,0.06 -2,0.56 -2.3,0.76l-1.01,-1.01c0.15,-0.11 0.44,-0.26 0.87,-0.2c0.49,0.06 0.76,0.37 0.76,0.38l0.07,0.09l0.84,-0.4l-0.08,-0.14c0,0 -0.25,-0.43 -0.13,-0.8c0.1,-0.3 0.36,-0.62 0.49,-0.75c0.22,0.09 0.62,0.3 0.77,0.52c0.21,0.3 0.14,0.81 0.13,0.81l-0.02,0.15l0.98,0.11l0.01,-0.15c0,-0.01 0.07,-0.65 0.59,-0.79c0.34,-0.09 0.65,-0.06 0.84,-0.03c-0.19,0.22 -0.48,0.61 -0.6,0.91" class="st3"/>
       <polygon id="svg_118" fill="#fff" points="25.060001373291016,20.98000144958496 25.200000762939453,21.020002365112305 25.279998779296875,21.170000076293945 25.920001983642578,21.170000076293945 25.990001678466797,21.059999465942383 26.080001831054688,20.989999771118164 26.119998931884766,20.8700008392334 25.09000015258789,20.85999870300293 25.060001373291016,20.98000144958496 " class="st3"/>
       <polygon id="svg_119" fill="#fff" points="25.330001831054688,19.090002059936523 24.360000610351562,19.10999870300293 24.509998321533203,19.520002365112305 25.270000457763672,19.309999465942383 25.330001831054688,19.090002059936523 " class="st3"/>
       <polygon id="svg_120" fill="#fff" points="24.59000015258789,24.059999465942383 25.549999237060547,24.059999465942383 25.619998931884766,23.770002365112305 24.490001678466797,23.770002365112305 24.59000015258789,24.059999465942383 " class="st3"/>
       <polygon id="svg_121" fill="#fff" points="24.81999969482422,24.73000144958496 25.400001525878906,24.719999313354492 25.459999084472656,24.420000076293945 24.720001220703125,24.440000534057617 24.81999969482422,24.73000144958496 " class="st3"/>
       <path id="svg_122" fill="#fff" d="m24.39,5.81c0.08,0.08 0.17,0.19 0.25,0.32c0.01,0.02 0.02,0.03 0.03,0.05c0.01,0.02 0.02,0.03 0.03,0.05c0.01,0.02 0.02,0.04 0.04,0.07c0.01,0.01 0.01,0.03 0.02,0.04c0.01,0.03 0.03,0.06 0.04,0.09c0,0.01 0.01,0.02 0.01,0.03c0.02,0.03 0.03,0.07 0.05,0.1c0.15,0.37 0.26,0.81 0.26,1.23c0,0.6 -0.23,0.94 -0.52,1.11c-0.08,0.04 -0.16,0.07 -0.24,0.09c0,0 0,0 -0.01,0c-0.04,0.01 -0.07,0.01 -0.11,0.02c-0.01,0 -0.02,0 -0.03,0c-0.04,0 -0.08,0.01 -0.12,0.01c-0.04,0 -0.08,0 -0.12,-0.01c-0.01,0 -0.02,0 -0.03,0c-0.04,0 -0.07,-0.01 -0.11,-0.02c0,0 0,0 -0.01,0c-0.08,-0.02 -0.16,-0.05 -0.24,-0.09c-0.3,-0.17 -0.52,-0.51 -0.52,-1.11c0,-0.42 0.11,-0.86 0.26,-1.23c0.01,-0.04 0.03,-0.07 0.05,-0.11c0,-0.01 0.01,-0.02 0.01,-0.03c0.01,-0.03 0.03,-0.06 0.04,-0.09c0.01,-0.01 0.01,-0.03 0.02,-0.04c0.01,-0.02 0.02,-0.04 0.04,-0.07c0.01,-0.02 0.02,-0.03 0.03,-0.05c0.01,-0.02 0.02,-0.03 0.03,-0.05c0.08,-0.13 0.16,-0.24 0.25,-0.32c-9.95,0.16 -18,8.3 -18,18.29c0,4.77 1.84,9.13 4.85,12.39l0,0.93l1.88,0c-0.13,0.16 -0.21,0.36 -0.21,0.58c0,0.51 0.41,0.92 0.92,0.92c0.05,0 0.09,0 0.14,-0.01c2.98,2.16 6.62,3.45 10.57,3.48l0,-0.73l0,0c-0.1,-0.11 -0.68,-0.78 -0.82,-1.35c-0.13,-0.5 0.03,-0.98 0.47,-1.41c0.17,0 0.34,0 0.51,0c0.17,0 0.34,0 0.51,0c0.43,0.43 0.59,0.91 0.47,1.41c-0.14,0.57 -0.72,1.24 -0.82,1.35c0,0 0,0 0,0l0,0.73c3.95,-0.03 7.6,-1.32 10.58,-3.48c0.04,0.01 0.08,0.01 0.12,0.01c0.51,0 0.92,-0.41 0.92,-0.92c0,-0.22 -0.08,-0.42 -0.21,-0.58l1.88,0l0,-0.93c3.01,-3.26 4.85,-7.61 4.85,-12.39c-0.02,-9.98 -8.06,-18.13 -18.01,-18.28m1.02,1.97c0,-0.39 -0.09,-0.81 -0.23,-1.2c5.43,0.49 9.92,4.65 10.76,10.09l-2.38,0c-0.82,-4.22 -4.3,-7.35 -8.53,-7.75c0.22,-0.24 0.38,-0.61 0.38,-1.14m8.12,14.52l2.84,0l0,12.14l-2.84,0l0,-12.14l0,0zm2.84,13.17l-2.84,0l0,-0.59l2.84,0l0,0.59l0,0zm-2.84,-14.2l2.84,0l0,0.59l-2.84,0l0,-0.59l0,0zm-0.44,-0.44l-0.09,0l0,-1.06l3.9,0l0,1.06l-0.09,0l-3.72,0l0,0zm3.6,-1.5l-0.75,0c0.12,-0.14 0.27,-0.35 0.38,-0.59c0.1,0.25 0.25,0.45 0.37,0.59m-0.23,-1.16l0.38,0l0,0.89c-0.16,-0.21 -0.35,-0.53 -0.38,-0.89m-0.83,1.06c-0.17,-0.18 -0.5,-0.59 -0.53,-1.06l1.06,0c-0.04,0.47 -0.36,0.88 -0.53,1.06m-0.31,0.1l-0.75,0c0.12,-0.14 0.27,-0.35 0.38,-0.59c0.11,0.25 0.25,0.45 0.37,0.59m-1.05,-0.1c-0.17,-0.18 -0.5,-0.59 -0.53,-1.06l1.06,0c-0.04,0.47 -0.36,0.88 -0.53,1.06m-0.31,0.1l-0.75,0c0.12,-0.14 0.27,-0.35 0.38,-0.59c0.11,0.25 0.25,0.45 0.37,0.59m-0.91,-0.27l0,-0.89l0.38,0c-0.02,0.36 -0.21,0.68 -0.38,0.89m-0.05,-1.95l3.9,0l0,0.62l-3.9,0l0,-0.62l0,0zm-8.91,-7.79c4.4,0 8.14,3.08 9.01,7.35l-0.29,0c-0.19,-0.6 -0.75,-1.04 -1.42,-1.04c-0.45,0 -2.18,0.46 -3.56,0.84c-0.08,0.12 -0.15,0.23 -0.18,0.31l-0.02,0.05c1.55,-0.43 3.34,-0.91 3.76,-0.91c0.57,0 1.04,0.39 1.16,0.92l0,1.33l0.2,0l0,1.16l-0.2,0l0,1.94l0.53,0l0,14.2l-0.42,0c-0.34,-0.22 -0.78,-0.42 -1.29,-0.6c0.06,-0.45 0.68,-5.57 0.71,-7.99c0,-0.25 0,-0.55 0.01,-0.88l-0.29,0c0,0.32 0,0.62 -0.01,0.87c-0.02,2.33 -0.61,7.2 -0.7,7.9c-0.26,-0.08 -0.54,-0.16 -0.83,-0.23c0.19,-1.24 0.83,-5.5 0.92,-7.65c0.01,-0.26 0.02,-0.56 0.04,-0.89l-0.29,0c-0.01,0.33 -0.03,0.63 -0.04,0.88c-0.09,2.12 -0.72,6.33 -0.92,7.59c-0.63,-0.14 -1.33,-0.26 -2.07,-0.36c-0.11,-0.37 -0.23,-0.68 -0.3,-0.86c0.11,-0.03 0.16,-0.06 0.18,-0.06l0.08,-0.04l0.01,-0.08c0,-0.06 0.09,-1.44 -0.36,-2.47c-0.03,-0.07 -0.06,-0.14 -0.1,-0.21c0.1,0.03 0.21,0.05 0.32,0.05c0.07,0 0.14,-0.01 0.21,-0.03c0.58,-0.16 1,-1.15 1.37,-2.2c0.26,-0.75 0.42,-1.28 0.47,-1.43c0.04,0.01 0.07,0.02 0.1,0.03c0.23,0.08 0.45,-0.03 0.53,-0.25c0.08,-0.21 0.01,-0.48 -0.23,-0.57c-0.03,-0.01 -0.07,-0.03 -0.12,-0.04c0.02,-0.07 0.09,-0.24 0.39,-0.41c0.39,-0.21 0.61,-0.2 0.89,-0.18c0.09,0.01 0.17,0.01 0.27,0.01c0.37,0 0.55,-0.22 0.61,-0.41l0.14,0l0,-5.18l-0.8,-0.71l-3.77,0l0,5.02l0.6,0.87l0.28,0c-0.04,0.05 -0.08,0.09 -0.12,0.15c-0.24,0.28 -0.14,0.54 -0.06,0.65l0.03,0.04l0.04,0.01c0.01,0 1.23,0.35 1.51,0.46c0.08,0.03 0.08,0.13 0.06,0.2c-0.04,0.11 -0.13,0.08 -0.16,0.07c-0.38,-0.13 -1.52,-0.47 -1.53,-0.48l-0.05,-0.02l-0.05,0.02c0,0 -0.04,0.02 -0.1,0.06c-0.05,-0.36 -0.2,-1.22 -0.42,-1.46c-0.16,-0.17 -0.34,-0.28 -0.46,-0.35c0.09,-0.28 0.13,-0.55 -0.14,-0.73c-0.24,-0.15 -0.61,-0.31 -0.75,-0.36c-0.01,-0.02 -0.01,-0.04 -0.03,-0.06c-0.09,-0.15 -0.28,-0.21 -0.44,-0.12c-0.15,0.09 -0.21,0.28 -0.12,0.44c0.09,0.15 0.28,0.21 0.44,0.12c0.04,-0.02 0.07,-0.05 0.09,-0.08c0.15,0.06 0.45,0.19 0.64,0.31c0.13,0.08 0.1,0.22 -0.06,0.61l-0.03,0.07c-0.12,0.31 -0.26,0.6 -0.32,0.74l-4.18,0.1l-0.75,-1.92c0.12,-0.07 0.24,-0.13 0.5,-0.22c0.02,-0.01 0.05,-0.02 0.07,-0.02l0.56,1.59l0.96,-0.02l-0.1,-0.29l-0.66,0.02l-0.48,-1.37c0.07,-0.02 0.14,-0.03 0.2,-0.05c0.1,0.1 0.26,0.14 0.39,0.06c0.15,-0.09 0.21,-0.29 0.12,-0.44c-0.09,-0.15 -0.28,-0.21 -0.44,-0.12c-0.08,0.05 -0.13,0.12 -0.15,0.21c-0.16,0.04 -0.37,0.09 -0.57,0.16c-0.43,0.14 -0.66,0.31 -0.67,0.32l-0.09,0.06l0.9,2.33l2.07,-0.05c-0.03,0.09 -0.03,0.19 0.02,0.28c0.09,0.15 0.28,0.21 0.44,0.12c0.14,-0.08 0.2,-0.27 0.13,-0.41l0.6,-0.01c-0.02,0.08 -0.02,0.17 0.03,0.25c0.09,0.15 0.28,0.21 0.44,0.12c0.14,-0.08 0.19,-0.24 0.14,-0.39l0.34,-0.01c0.12,0.15 0.31,0.44 0.32,0.68c0.02,0.37 -0.13,0.9 -0.28,1.22c-0.05,0.1 -0.08,0.17 -0.11,0.23c-0.35,-0.06 -1.28,-0.2 -2.16,-0.2c-0.39,0 -0.88,0.04 -1.45,0.13l-2.79,-7.34c0.01,-0.27 0.08,-0.59 0.25,-0.7c0.3,-0.18 0.63,-0.22 0.64,-0.22l0.26,-0.02l-0.16,-0.21c-0.02,-0.02 -0.38,-0.5 -0.89,-0.37c-0.17,0.04 -0.29,0.12 -0.39,0.2c-0.03,-0.13 -0.1,-0.26 -0.22,-0.36c-0.29,-0.25 -0.62,-0.31 -0.64,-0.31l-0.04,-0.01l0,0l0,0l0,0l0,0l-0.02,0.03c-0.01,0.01 -0.22,0.27 -0.29,0.64c-0.03,0.16 0.01,0.3 0.06,0.42c-0.13,0 -0.28,0.02 -0.43,0.09c-0.47,0.22 -0.45,0.83 -0.44,0.86l0.01,0.26l0.22,-0.15c0,0 0.28,-0.19 0.63,-0.24c0.19,-0.03 0.45,0.18 0.64,0.38l1.28,3.37c-0.17,0.08 -0.44,0.24 -0.72,0.56c-0.45,0.51 -0.65,1.04 -0.65,1.06l-0.05,0.15l0.16,0.04c0,0 0.03,0.01 0.06,0.02c-0.03,0.11 -0.09,0.28 -0.21,0.55c-0.11,0.25 -0.25,0.4 -0.42,0.58c-0.24,0.25 -0.5,0.52 -0.71,1.14c-0.28,0.83 0.05,1.52 0.07,1.54l0.06,0.11l0.12,-0.04c0,0 0.1,-0.03 0.25,-0.07c0.18,0.24 0.68,0.84 1.44,1.06c0.11,0.03 0.2,0.06 0.29,0.08c-0.08,0.22 -0.28,0.8 -0.34,1.09c-0.07,0.35 -0.13,1.07 -0.13,1.1l-0.01,0.07l0.05,0.05c0,0 0.04,0.03 0.09,0.07c-0.11,0.26 -0.3,0.74 -0.41,1.17c-0.41,0.07 -0.8,0.14 -1.17,0.23c-0.19,-1.26 -0.83,-5.47 -0.92,-7.59c-0.07,-1.73 -0.21,-5.4 -0.29,-7.55l-0.29,0c0.08,2.15 0.22,5.83 0.3,7.56c0.09,2.15 0.73,6.41 0.92,7.65c-0.29,0.07 -0.57,0.15 -0.83,0.23c-0.09,-0.7 -0.68,-5.57 -0.7,-7.9c-0.02,-1.72 -0.03,-5.39 -0.04,-7.54l-0.29,0c0.01,2.15 0.03,5.82 0.04,7.55c0.02,2.42 0.65,7.55 0.71,7.99c-0.51,0.18 -0.95,0.38 -1.29,0.6l-0.42,0l0,-14.2l0.53,0l0,-1.94l-0.2,0l0,-1.16l0.2,0l0,-1.33c0.13,-0.53 0.6,-0.92 1.16,-0.92c0.41,0 2.13,0.45 3.65,0.88l0.22,-0.24c-1.41,-0.4 -3.38,-0.92 -3.87,-0.92c-0.67,0 -1.23,0.44 -1.42,1.04l-0.29,0c0.84,-4.31 4.58,-7.38 8.98,-7.38m-4.95,26.61c0.01,0.01 0.19,0.29 0.67,0.39c0.36,0.08 0.72,0.02 0.87,-0.01c0.14,0.08 0.5,0.29 0.93,0.34c0.43,0.05 0.84,-0.08 1,-0.13c0.13,0.06 0.46,0.19 0.93,0.19c0.46,0 0.77,-0.14 0.9,-0.21c0.19,0.06 0.73,0.21 1.25,0.15c0.5,-0.06 0.86,-0.26 1.01,-0.35c0.13,0.05 0.39,0.12 0.7,0.07c0.42,-0.06 0.74,-0.31 0.75,-0.33l0.06,-0.05l0,-0.07c0,-0.03 -0.04,-0.74 -0.17,-1.35c1.71,0.23 3.15,0.6 4.07,1.07c-1.56,0.8 -4.66,1.32 -8,1.32c-3.35,0 -6.45,-0.52 -8,-1.32c0.75,-0.38 1.86,-0.7 3.19,-0.93c-0.09,0.53 -0.16,1.08 -0.16,1.11l-0.01,0.05l0.01,0.06l0,0zm-0.38,-16.93c0.03,-0.16 0.1,-0.3 0.15,-0.39c0.1,0.04 0.24,0.1 0.37,0.21c0.2,0.17 0.15,0.52 0.15,0.52l0.28,0.07c0,0 0.11,-0.29 0.44,-0.38c0.15,-0.04 0.29,0.02 0.39,0.09c-0.14,0.04 -0.31,0.1 -0.47,0.2c-0.29,0.18 -0.37,0.62 -0.38,0.86c-0.04,0.02 -0.11,0.04 -0.18,0.07c-0.08,0.03 -0.14,0.05 -0.19,0.06c-0.17,-0.18 -0.51,-0.47 -0.85,-0.42c-0.19,0.03 -0.36,0.09 -0.49,0.15c0.03,-0.12 0.1,-0.25 0.24,-0.32c0.31,-0.15 0.58,0.01 0.58,0.01l0.17,-0.24c0.01,0 -0.25,-0.24 -0.21,-0.49m0.85,1.53l0,0c0,0 0,0 0,0l0,0l0,0c0.06,-0.02 0.1,-0.04 0.14,-0.05l0.11,0.29c-0.06,0.01 -0.12,0.02 -0.17,0.05c-0.03,0.02 -0.07,0.05 -0.1,0.07l-0.12,-0.31c0.04,-0.01 0.09,-0.03 0.14,-0.05m0.22,0.54c0.02,-0.01 0.08,-0.01 0.14,-0.01l0.1,0.26c-0.05,0.01 -0.1,0.02 -0.15,0.04c-0.04,0.02 -0.08,0.06 -0.12,0.09l-0.1,-0.26c0.04,-0.04 0.09,-0.1 0.13,-0.12m0.24,0.55c0.02,-0.01 0.07,-0.01 0.11,-0.01l3.37,8.84l-0.39,-0.21l-3.23,-8.49c0.03,-0.04 0.09,-0.1 0.14,-0.13m2.81,6.26c0.53,-0.08 0.99,-0.12 1.35,-0.12c0.84,0 1.76,0.14 2.1,0.19l-0.09,0.47c-0.34,-0.07 -1.18,-0.23 -2.02,-0.19c-0.7,0.04 -1.02,0.07 -1.16,0.1l-0.18,-0.45l0,0zm1.2,4.46c0.07,0.13 0.12,0.34 0.14,0.5c-0.04,0 -0.09,-0.01 -0.15,-0.03c-0.09,-0.03 -0.17,-0.22 -0.23,-0.35c-0.03,-0.06 -0.05,-0.12 -0.08,-0.17c-0.11,-0.2 -0.38,-0.34 -0.41,-0.35l-0.13,0.26c0.08,0.04 0.24,0.14 0.29,0.23c0.02,0.04 0.04,0.09 0.07,0.14c0.01,0.02 0.02,0.05 0.03,0.08l-0.02,0.01c-0.06,-0.05 -0.15,-0.14 -0.23,-0.22c-0.09,-0.09 -0.26,-0.19 -0.49,-0.32c-0.16,-0.09 -0.32,-0.18 -0.45,-0.27c-0.25,-0.17 -0.44,-0.57 -0.49,-0.66c0.2,-0.16 0.81,-0.66 0.92,-0.75c0,0 0,0 0.01,-0.01l0.96,0.5c0.01,0.07 0.04,0.19 0.11,0.33c0.05,0.11 0.13,0.2 0.2,0.3c0.11,0.13 0.22,0.27 0.3,0.5c0.09,0.25 0.1,0.5 0.09,0.65l-0.03,0c-0.03,-0.16 -0.08,-0.37 -0.16,-0.51c-0.14,-0.26 -0.39,-0.47 -0.4,-0.48l-0.18,0.22c0,0 0.22,0.18 0.33,0.4m-2.39,-4.05c0.02,-0.07 0.04,-0.13 0.05,-0.2c0.06,-0.01 0.15,-0.03 0.26,-0.05l0.18,0.47l-0.54,0.11c-0.04,-0.03 -0.07,-0.05 -0.11,-0.07c0.07,-0.07 0.12,-0.16 0.16,-0.26m-0.23,-1.09c-0.08,-0.06 -0.11,-0.09 -0.1,-0.23c0,-0.03 0.03,-0.1 0.09,-0.18c0.06,0.06 0.11,0.11 0.14,0.14l0.31,0.82c-0.06,0.01 -0.11,0.02 -0.15,0.03c-0.02,-0.18 -0.07,-0.34 -0.12,-0.42c-0.06,-0.07 -0.12,-0.12 -0.17,-0.16m0.82,1.58l0.3,0.8c-0.06,-0.01 -0.13,0 -0.19,0.02c-0.08,-0.2 -0.23,-0.52 -0.4,-0.69c-0.02,-0.02 -0.04,-0.04 -0.06,-0.06l0.35,-0.07l0,0zm0.29,1.09c0.06,0.01 0.11,0.06 0.13,0.1c0.08,0.13 -0.01,0.22 -0.03,0.24c-0.11,0.09 -0.75,0.62 -0.93,0.76c-0.13,0.1 -0.32,0.09 -0.38,0.01c-0.08,-0.09 -0.02,-0.22 0,-0.26c0.25,-0.14 0.88,-0.65 1.05,-0.79c0.05,-0.04 0.11,-0.06 0.16,-0.06m-1.9,-5.33c-0.02,-0.01 -0.03,-0.02 -0.04,-0.03c-0.13,-0.07 -0.23,-0.12 -0.32,-0.16c0.09,-0.07 0.17,-0.11 0.24,-0.14l0.12,0.33l0,0zm-0.19,0.22c0.22,0.12 0.34,0.23 0.39,0.29l0.48,1.27c-0.22,-0.18 -0.51,-0.37 -0.85,-0.49c-0.32,-0.12 -0.83,-0.26 -1.1,-0.33c0.08,-0.18 0.26,-0.5 0.53,-0.81c0.04,-0.04 0.08,-0.08 0.11,-0.12c0.06,0.02 0.21,0.07 0.44,0.19m-0.97,1.07c0.07,0.02 0.15,0.04 0.23,0.06c0.02,0.16 0.03,0.49 -0.19,0.91c-0.33,0.63 -0.89,1.17 -0.89,1.18l0.21,0.21c0.02,-0.02 0.59,-0.58 0.95,-1.25c0.21,-0.4 0.25,-0.74 0.24,-0.96c0.13,0.04 0.25,0.08 0.35,0.12c0.33,0.12 0.61,0.32 0.83,0.49c-0.08,0.12 -0.15,0.25 -0.16,0.37c-0.01,0.29 0.12,0.39 0.21,0.46c0.04,0.03 0.07,0.06 0.09,0.1c0.06,0.09 0.13,0.43 0.04,0.67c-0.04,0.11 -0.11,0.18 -0.2,0.21c-0.42,0.13 -2.5,0.76 -3.04,0.92c-0.07,-0.21 -0.19,-0.68 -0.01,-1.21c0.19,-0.55 0.42,-0.79 0.65,-1.03c0.17,-0.18 0.35,-0.36 0.48,-0.67c0.11,-0.27 0.17,-0.45 0.21,-0.58m-0.19,3.45c0.08,0.14 0.23,0.37 0.44,0.55c0.31,0.25 0.77,0.44 0.79,0.44l0.11,-0.27c0,0 -0.44,-0.18 -0.71,-0.4c-0.15,-0.12 -0.27,-0.29 -0.34,-0.41c0.65,-0.2 1.33,-0.4 1.62,-0.49c0.12,0.08 0.4,0.26 0.56,0.42c0.13,0.13 0.28,0.45 0.35,0.64c-0.41,0.33 -0.87,0.68 -0.96,0.72c-0.17,0.07 -0.45,0.1 -1.28,-0.13c-0.59,-0.17 -1.02,-0.62 -1.22,-0.87c0.19,-0.06 0.41,-0.13 0.64,-0.2m1.57,1.54c0.05,0 0.09,0 0.13,-0.01c-0.01,0.11 0.01,0.24 0.11,0.35c0.06,0.07 0.14,0.11 0.22,0.14c-0.02,0.11 -0.05,0.27 -0.07,0.48c-0.04,0.4 -0.04,0.77 -0.04,0.79l0.29,0c0,0 0,-0.38 0.04,-0.76c0.02,-0.23 0.05,-0.4 0.08,-0.49c0.01,0 0.02,0 0.03,-0.01c0.06,0.14 0.28,0.57 0.59,0.78c0.15,0.1 0.32,0.2 0.47,0.28c0.18,0.1 0.37,0.21 0.42,0.27c0.13,0.13 0.29,0.28 0.3,0.28l0.06,0.05l0.25,-0.07c0.06,0.08 0.13,0.14 0.22,0.17c0.1,0.04 0.19,0.05 0.27,0.05c0.11,0 0.18,-0.02 0.2,-0.03l0.11,-0.04l-0.01,-0.06l0.25,0l0.02,-0.13c0,-0.02 0.06,-0.46 -0.1,-0.91c-0.1,-0.28 -0.24,-0.45 -0.36,-0.59c-0.07,-0.08 -0.13,-0.15 -0.16,-0.23c-0.09,-0.2 -0.1,-0.31 -0.1,-0.31l0,-0.08l-0.16,-0.08l-0.78,-2.04c0.13,-0.02 0.38,-0.04 0.85,-0.07c0.07,0.14 0.23,0.54 0.29,0.94c0.07,0.51 0.05,1.29 0.05,1.3l0.29,0.01c0,-0.03 0.02,-0.81 -0.06,-1.35c-0.05,-0.37 -0.18,-0.72 -0.27,-0.92c0.24,-0.01 0.48,0 0.71,0.02c0.1,0.19 0.49,0.94 0.68,1.76c0.23,0.97 0.29,2.31 0.29,2.32l0.29,-0.01c0,-0.06 -0.06,-1.38 -0.3,-2.38c-0.17,-0.7 -0.46,-1.33 -0.62,-1.66c0.54,0.07 0.93,0.16 0.94,0.17l0.15,0.04l0.19,-1.01c0.03,-0.05 0.06,-0.12 0.1,-0.21c0.17,-0.36 0.33,-0.93 0.31,-1.36c-0.01,-0.24 -0.14,-0.5 -0.26,-0.67l0,0l0.04,-0.08c0.01,-0.02 0.2,-0.4 0.37,-0.84l0.01,-0.03c0.1,0.06 0.24,0.15 0.35,0.27c0.14,0.15 0.3,0.93 0.37,1.42l0.01,0c-0.15,0.1 -0.32,0.24 -0.52,0.43c-0.42,0.4 -0.5,0.5 -0.51,0.51l0.23,0.18c0,0 0.08,-0.09 0.48,-0.48c0.34,-0.33 0.64,-0.51 0.76,-0.57c0.1,0.03 0.34,0.1 0.59,0.18c-0.06,0.22 -0.54,1.17 -0.81,1.5c-0.35,0.42 -0.62,0.62 -0.62,0.63l0.19,0.22c0.02,-0.02 0.29,-0.22 0.65,-0.66c0.31,-0.38 0.79,-1.35 0.86,-1.6c0.07,0.02 0.14,0.05 0.21,0.07c-0.04,0.14 -0.2,0.67 -0.46,1.42c-0.18,0.51 -0.65,1.88 -1.17,2.02c-0.25,0.07 -0.54,-0.08 -0.66,-0.15c-0.33,-0.63 -0.61,-0.99 -0.62,-1.01l-0.23,0.18c0,0.01 0.45,0.59 0.88,1.57c0.36,0.82 0.35,1.92 0.34,2.24c-0.1,0.03 -0.29,0.07 -0.58,0.09c-0.42,0.02 -0.56,-0.05 -0.56,-0.05l-0.08,-0.05l-0.08,0.06c0,0 -0.47,0.33 -2.09,0.41c-1.64,0.09 -2.58,-0.4 -2.58,-0.41l-0.05,-0.03l-0.05,0.01c-0.01,0 -0.53,0.12 -0.97,0.05c-0.3,-0.05 -0.5,-0.16 -0.59,-0.22c0.02,-0.2 0.06,-0.72 0.12,-0.98c0.06,-0.29 0.28,-0.91 0.34,-1.09c0.23,0.05 0.39,0.07 0.52,0.07m-0.85,2.4c0.12,0.05 0.27,0.1 0.44,0.12c0.42,0.06 0.88,-0.01 1.03,-0.05c0.2,0.1 0.99,0.43 2.27,0.43c0.13,0 0.27,0 0.42,-0.01c1.38,-0.07 1.98,-0.32 2.17,-0.42c0.1,0.03 0.3,0.07 0.64,0.06c0.12,0 0.22,-0.01 0.31,-0.03c0.07,0.17 0.22,0.56 0.36,1.02c0.15,0.52 0.21,1.28 0.23,1.52c-0.1,0.06 -0.3,0.18 -0.55,0.22c-0.24,0.03 -0.45,-0.02 -0.55,-0.06l-0.3,-2.16l-0.29,0.04l0.3,2.16c-0.14,0.08 -0.45,0.24 -0.86,0.29c-0.42,0.05 -0.87,-0.06 -1.07,-0.12l-0.13,-2.14l-0.29,0.02l0.13,2.13c-0.1,0.05 -0.36,0.17 -0.75,0.17c-0.35,0 -0.61,-0.08 -0.74,-0.14l0.14,-2.18l-0.29,-0.02l-0.14,2.16c-0.14,0.05 -0.5,0.15 -0.86,0.11c-0.35,-0.04 -0.67,-0.21 -0.79,-0.29l0.42,-2.1l-0.29,-0.06l-0.42,2.12c-0.15,0.02 -0.42,0.05 -0.68,0c-0.26,-0.06 -0.4,-0.17 -0.46,-0.23c0.03,-0.21 0.11,-0.9 0.22,-1.4c0.06,-0.39 0.26,-0.89 0.38,-1.16m8.02,-10.13c0,0 0,0 0,0l0,-2.45l0.32,0.48l0,2.44l-0.32,-0.47l0,0zm0.32,0.89l0,0.55l-0.32,-0.45l0,-0.57l0.32,0.47l0,0zm-0.32,-3.75c0,0 0,0 0,0l0,-0.68l0.32,0.45l0,0.7l-0.32,-0.47l0,0zm0.16,-0.93l0.71,0l0.37,0.49l-0.72,0l-0.36,-0.49l0,0zm3.17,1.8l0.68,0l0,2.59l-0.68,0l0,-2.59l0,0zm0.68,3.58l-0.68,0l0,-0.69l0.68,0l0,0.69l0,0zm-0.68,-4.59l0.68,0l0,0.72l-0.68,0l0,-0.72l0,0zm-0.02,-0.3l0,0l-0.5,-0.49l0.6,0l0.56,0.49l-0.66,0l0,0zm-1.65,1.31l1.38,0l0,2.59l-1.38,0l0,-2.59l0,0zm1.38,3.58l-1.38,0l0,-0.69l1.38,0l0,0.69l0,0zm-1.38,-4.59l1.38,0l0,0.72l-1.38,0l0,-0.72l0,0zm1.35,-0.3l-1.39,0l0,0l-0.37,-0.49l1.27,0l0.49,0.49l0,0zm-1.64,1.02l-0.75,0l0,-0.72l0.75,0l0,0.72l0,0zm0,2.89l-0.75,0l0,-2.59l0.75,0l0,2.59l0,0zm-0.76,0.29l0.75,0l0,0.69l-0.75,0l0,-0.69l0,0zm0.1,1.32c0.13,-0.15 0.22,-0.26 0.27,-0.34l2.85,0c-0.05,0.06 -0.13,0.12 -0.28,0.12c-0.09,0 -0.17,-0.01 -0.25,-0.01c-0.3,-0.02 -0.58,-0.04 -1.05,0.21c-0.38,0.2 -0.5,0.44 -0.54,0.58c-0.39,-0.12 -0.91,-0.27 -1.08,-0.32c-0.01,-0.04 -0.02,-0.13 0.08,-0.24m-16.95,-3.01l2.84,0l0,12.14l-2.84,0l0,-12.14l0,0zm2.84,13.17l-2.84,0l0,-0.59l2.84,0l0,0.59l0,0zm-2.84,-14.2l2.84,0l0,0.59l-2.84,0l0,-0.59l0,0zm-0.45,-0.44l-0.09,0l0,-1.06l3.9,0l0,1.06l-0.09,0l-3.72,0l0,0zm0.5,-2.09c0.11,0.25 0.26,0.45 0.38,0.59l-0.75,0c0.12,-0.14 0.27,-0.34 0.37,-0.59m-0.53,0.32l0,-0.89l0.38,0c-0.02,0.36 -0.21,0.68 -0.38,0.89m0.69,-0.89l1.06,0c-0.03,0.47 -0.36,0.88 -0.53,1.06c-0.17,-0.18 -0.5,-0.59 -0.53,-1.06m1.21,0.57c0.11,0.25 0.26,0.45 0.38,0.59l-0.75,0c0.11,-0.14 0.26,-0.34 0.37,-0.59m0.15,-0.57l1.06,0c-0.03,0.47 -0.36,0.88 -0.53,1.06c-0.17,-0.18 -0.5,-0.59 -0.53,-1.06m1.21,0.57c0.11,0.25 0.26,0.45 0.38,0.59l-0.75,0c0.11,-0.14 0.26,-0.34 0.37,-0.59m0.15,-0.57l0.38,0l0,0.89c-0.17,-0.21 -0.36,-0.53 -0.38,-0.89m-3.47,-1.06l3.9,0l0,0.62l-3.9,0l0,-0.62l0,0zm11.88,-8.19c-4.23,0.4 -7.71,3.53 -8.53,7.75l-2.38,0c0.84,-5.44 5.33,-9.6 10.76,-10.09c-0.14,0.39 -0.23,0.81 -0.23,1.2c0,0.53 0.16,0.9 0.38,1.14m-16.63,15.18c0,-7.66 4.93,-14.19 11.79,-16.58c-3.41,1.8 -5.92,5.14 -6.52,9.16l-0.96,0l0,1.5l0.2,0l0,1.16l-0.2,0l0,1.94l0.53,0l0,14.2l-0.64,0c-2.61,-3.07 -4.2,-7.05 -4.2,-11.38m4.56,12.87l0,-1.06l0.29,0l3.72,0l0.29,0l0,1.06l-4.3,0l0,0zm2.15,1.5c-0.26,0 -0.48,-0.21 -0.48,-0.48c0,-0.26 0.21,-0.48 0.48,-0.48c0.26,0 0.48,0.21 0.48,0.48c-0.01,0.27 -0.22,0.48 -0.48,0.48m0.79,-0.01c0.08,-0.14 0.13,-0.3 0.13,-0.47c0,-0.22 -0.08,-0.42 -0.21,-0.58l1.73,0c0.26,0.15 0.56,0.29 0.91,0.42c-0.04,0.16 -0.08,0.36 -0.06,0.58c0.09,0.94 0.62,1.49 2.38,2.45c-1.77,-0.54 -3.41,-1.36 -4.88,-2.4m5.02,2.15c-1.68,-0.91 -2.16,-1.39 -2.24,-2.23c-0.01,-0.16 0.01,-0.32 0.05,-0.45c0.6,0.21 1.3,0.38 2.08,0.53c-0.04,0.17 -0.07,0.43 -0.01,0.71c0.14,0.67 0.8,1.51 1.97,2.1c-0.63,-0.16 -1.34,-0.38 -1.85,-0.66m2.91,0.78c-1.67,-0.52 -2.59,-1.55 -2.74,-2.28c-0.05,-0.24 -0.02,-0.46 0.01,-0.6c0.6,0.1 1.24,0.19 1.91,0.25c-0.09,0.23 -0.19,0.62 -0.14,1.03c0.08,0.58 0.52,1.26 1.33,1.71c-0.11,-0.03 -0.23,-0.07 -0.37,-0.11m0.87,-1.02c0.12,0.46 0.47,0.97 0.7,1.25c-0.05,-0.01 -0.11,-0.02 -0.18,-0.04c-1.29,-0.33 -1.97,-1.16 -2.06,-1.84c-0.05,-0.39 0.07,-0.77 0.15,-0.96c0.57,0.05 1.15,0.08 1.75,0.09c-0.36,0.47 -0.49,0.98 -0.36,1.5m1.26,-1.92c-3.55,0 -6.82,-0.58 -8.27,-1.46l0,-0.98c1.62,0.86 4.76,1.4 8.27,1.4c3.5,0 6.65,-0.54 8.27,-1.4l0,0.98c-1.45,0.88 -4.72,1.46 -8.27,1.46m0.56,3.17c0.23,-0.29 0.59,-0.79 0.7,-1.25c0.13,-0.52 0.01,-1.03 -0.36,-1.49c0.6,-0.02 1.19,-0.05 1.75,-0.09c0.08,0.19 0.2,0.57 0.15,0.96c-0.09,0.68 -0.77,1.51 -2.06,1.84c-0.07,0.02 -0.13,0.03 -0.18,0.03m1.2,-0.12c0.81,-0.45 1.25,-1.13 1.33,-1.71c0.06,-0.4 -0.05,-0.79 -0.14,-1.03c0.67,-0.06 1.31,-0.15 1.91,-0.25c0.03,0.14 0.06,0.36 0.01,0.6c-0.15,0.73 -1.08,1.75 -2.74,2.28c-0.13,0.04 -0.26,0.08 -0.37,0.11m1.43,-0.22c1.17,-0.6 1.83,-1.43 1.97,-2.1c0.06,-0.28 0.03,-0.54 -0.01,-0.71c0.78,-0.14 1.48,-0.32 2.08,-0.53c0.03,0.13 0.06,0.29 0.05,0.45c-0.08,0.83 -0.56,1.31 -2.24,2.23c-0.51,0.27 -1.21,0.49 -1.85,0.66m6.88,-2.81c-1.49,1.04 -3.14,1.86 -4.91,2.41c0.01,0 0.01,-0.01 0.02,-0.01c1.77,-0.96 2.3,-1.51 2.39,-2.46c0.02,-0.21 -0.02,-0.42 -0.06,-0.58c0.34,-0.13 0.65,-0.27 0.91,-0.42l1.73,0c-0.13,0.16 -0.21,0.36 -0.21,0.58c0,0.18 0.05,0.34 0.13,0.48m0.79,0c-0.26,0 -0.48,-0.21 -0.48,-0.48c0,-0.26 0.21,-0.48 0.48,-0.48c0.26,0 0.48,0.21 0.48,0.48c-0.01,0.27 -0.22,0.48 -0.48,0.48m2.15,-1.5l-4.3,0l0,-1.06l0.29,0l3.72,0l0.29,0l0,1.06l0,0zm0.35,-1.5l-0.64,0l0,-14.2l0.53,0l0,-1.94l-0.2,0l0,-1.16l0.2,0l0,-1.5l-0.96,0c-0.6,-4.01 -3.1,-7.36 -6.52,-9.16c6.85,2.39 11.79,8.92 11.79,16.58c0,4.34 -1.58,8.32 -4.2,11.38" class="st3"/>
      </g>
      <g id="svg_123">
       <path id="svg_124" fill="#fff" d="m82.75,1.81c-0.91,0 -1.66,0.75 -1.66,1.66c0,0.91 0.75,1.66 1.66,1.66c0.88,0 1.66,-0.75 1.66,-1.66c0,-0.91 -0.78,-1.66 -1.66,-1.66" class="st4"/>
       <path id="svg_125" fill="#fff" d="m81.45,8.2l0,15.54c0.42,-0.03 0.85,-0.1 1.3,-0.1c0.42,0 0.81,0.07 1.3,0.1l0,-15.54c-0.49,0.03 -0.88,0.1 -1.3,0.1c-0.45,-0.01 -0.88,-0.07 -1.3,-0.1" class="st4"/>
       <path id="svg_126" fill="#fff" d="m99.34,8.2l-2.6,7.02l-1.95,4.59c-0.13,0.29 -0.39,0.59 -0.62,0.91c-2.02,-4.55 -3.94,-9.5 -4.85,-12.52c-0.55,0.03 -0.98,0.1 -1.43,0.1c-0.52,0 -1.01,-0.06 -1.46,-0.1c2.05,4.52 5.24,12.45 6.37,15.55c0.32,-0.03 0.65,-0.1 1.01,-0.1c0.29,0 0.62,0.07 0.97,0.1c1.63,-4.72 4.88,-11.87 6.64,-15.55c-0.39,0.03 -0.72,0.1 -1.04,0.1c-0.35,-0.01 -0.71,-0.07 -1.04,-0.1" class="st4"/>
       <path id="svg_127" fill="#fff" d="m109.34,24c1.98,0 4,-0.78 5.59,-1.92l0.03,-1.69c-0.88,0.85 -2.6,2.24 -4.81,2.24c-3.94,0 -5.92,-3.12 -5.63,-6.76l4.59,0c2.18,0 4.39,0.03 6.6,0.1c0.32,-5.43 -2.99,-7.97 -6.6,-7.97c-4.84,0 -7.45,3.48 -7.45,8c0,5.04 3.19,8 7.68,8m-0.23,-14.99c3.22,0 4,2.83 4.07,5.66l-8.65,0c0.19,-2.73 1.52,-5.66 4.58,-5.66" class="st4"/>
       <path id="svg_128" fill="#fff" d="m120.67,11.06l-0.16,0.39l0,-3.25c-0.49,0.03 -0.88,0.1 -1.3,0.1c-0.45,0 -0.88,-0.06 -1.3,-0.1l0,15.54c0.42,-0.03 0.85,-0.1 1.3,-0.1c0.42,0 0.81,0.07 1.3,0.1l0,-8.42c0,-1.76 0.06,-2.83 1.2,-4.13c0.49,-0.55 1.37,-0.81 2.08,-0.81c0.55,0 1.04,0.39 1.53,0.52l0.45,-2.73c-0.29,-0.13 -0.55,-0.16 -1.01,-0.16c-1.62,-0.01 -3.02,1.36 -4.09,3.05" class="st4"/>
       <path id="svg_129" fill="#fff" d="m128.16,11.71c0,-1.76 1.33,-2.7 2.96,-2.7c1.2,0 2.34,1.07 2.76,2.15l0.29,0c0.2,-0.78 0.46,-1.56 0.78,-2.31c-0.58,-0.36 -1.98,-0.85 -3.67,-0.85c-2.93,0 -5.3,1.69 -5.3,4.81c0,5.69 7.67,2.83 7.67,7.22c0,1.72 -1.59,2.96 -3.19,2.96c-1.53,0 -2.96,-1.14 -3.74,-2.41l-0.26,0c-0.13,0.81 -0.42,1.59 -0.68,2.37c1.14,0.68 2.73,1.04 4.07,1.04c2.86,0 5.98,-1.66 5.98,-5.14c0.01,-5.19 -7.67,-2.98 -7.67,-7.14" class="st4"/>
       <path id="svg_130" fill="#fff" d="m140.1,1.81c-0.91,0 -1.66,0.75 -1.66,1.66c0,0.91 0.75,1.66 1.66,1.66c0.88,0 1.66,-0.75 1.66,-1.66c0,-0.91 -0.78,-1.66 -1.66,-1.66" class="st4"/>
       <path id="svg_131" fill="#fff" d="m138.8,8.2l0,15.54c0.43,-0.03 0.85,-0.1 1.3,-0.1c0.42,0 0.81,0.07 1.3,0.1l0,-15.54c-0.49,0.03 -0.88,0.1 -1.3,0.1c-0.45,-0.01 -0.87,-0.07 -1.3,-0.1" class="st4"/>
       <path id="svg_132" fill="#fff" d="m148.87,17.59l0,-8.16l3.45,0c-0.1,-0.32 -0.1,-0.78 0,-1.24l-3.45,0l0,-4.23l-2.6,1.01l0,3.22l-2.02,0c0.1,0.42 0.1,0.81 0,1.24l2.02,0l0,9.46c-0.16,3.97 1.27,5.11 3.74,5.11c0.94,0 1.85,-0.26 2.73,-0.59l0,-0.77c-0.49,0.1 -0.98,0.23 -1.46,0.23c-2.7,-0.01 -2.41,-3.29 -2.41,-5.28" class="st4"/>
       <path id="svg_133" fill="#fff" d="m175.34,22.86c-2.7,0 -2.41,-3.28 -2.41,-5.27l0,-8.16l3.45,0c-0.1,-0.32 -0.1,-0.78 0,-1.24l-3.45,0l0,-4.23l-2.6,1.01l0,3.22l-2.01,0c0.1,0.42 0.1,0.81 0,1.24l2.01,0l0,9.46c-0.16,3.97 1.27,5.11 3.74,5.11c0.95,0 1.85,-0.26 2.73,-0.59l0,-0.77c-0.49,0.09 -0.98,0.22 -1.46,0.22" class="st4"/>
       <path id="svg_134" fill="#fff" d="m77.46,26.84c-0.68,2.21 -3.32,8.62 -4.78,12.1c-1.49,-3.41 -3.32,-8.81 -4.16,-12.1c-0.33,0.03 -0.59,0.1 -0.85,0.1c-0.29,0 -0.58,-0.07 -0.85,-0.1c-1.07,3.42 -3.22,9.2 -4.55,12.07c-1.56,-3.77 -2.99,-8.13 -4.13,-12.07c-0.55,0.03 -0.98,0.1 -1.43,0.1c-0.49,0 -0.98,-0.07 -1.43,-0.1c1.76,4.06 3.84,9.66 5.76,15.55c0.29,-0.03 0.59,-0.1 0.88,-0.1c0.29,0 0.55,0.07 0.88,0.1c1.56,-4.98 3.35,-9.73 4.42,-11.81c1.2,2.99 3.15,8.65 4,11.81c0.29,-0.03 0.58,-0.1 0.88,-0.1c0.26,0 0.52,0.07 0.88,0.1c2.02,-5.95 5.4,-13.3 6.54,-15.55c-0.39,0.03 -0.68,0.1 -1.01,0.1c-0.4,0 -0.72,-0.07 -1.05,-0.1" class="st4"/>
       <path id="svg_135" fill="#fff" d="m81.45,26.84l0,15.55c0.42,-0.03 0.85,-0.1 1.3,-0.1c0.42,0 0.81,0.07 1.3,0.1l0,-15.55c-0.49,0.03 -0.88,0.1 -1.3,0.1c-0.46,0 -0.88,-0.07 -1.3,-0.1" class="st4"/>
       <path id="svg_136" fill="#fff" d="m94.33,26.64c-4.85,0 -7.45,3.48 -7.45,8c0,5.04 3.19,8 7.67,8c1.99,0 4,-0.78 5.6,-1.92l0.03,-1.69c-0.88,0.85 -2.6,2.24 -4.81,2.24c-3.93,0 -5.92,-3.12 -5.63,-6.76l4.59,0c2.18,0 4.39,0.03 6.6,0.1c0.33,-5.43 -2.99,-7.97 -6.6,-7.97m-4.59,6.67c0.19,-2.73 1.53,-5.66 4.59,-5.66c3.22,0 4,2.83 4.06,5.66l-8.65,0l0,0z" class="st4"/>
       <path id="svg_137" fill="#fff" d="m110.89,26.64c-2.31,0 -4.1,1.17 -5.24,3.15l0,-2.95c-0.49,0.03 -0.88,0.1 -1.3,0.1c-0.46,0 -0.88,-0.07 -1.3,-0.1l0,15.55c0.42,-0.03 0.85,-0.1 1.3,-0.1c0.42,0 0.81,0.07 1.3,0.1l0,-7.55c0,-4 0.85,-6.51 4.26,-6.51c3.06,0 3.61,2.37 3.61,5.4l0,8.65c0.42,-0.03 0.85,-0.1 1.3,-0.1c0.42,0 0.81,0.07 1.3,0.1l0,-9.4c0.01,-4.29 -1.45,-6.34 -5.23,-6.34" class="st4"/>
       <path id="svg_138" fill="#fff" d="m165.61,21.08l0,-7.63c0,-3.72 -1.87,-5.52 -5.33,-5.52c-1.94,0 -3.71,0.72 -5.29,1.81l0,1.84l0.36,0c0.23,-0.72 1.51,-2.27 3.91,-2.27c2.46,0 3.85,1.41 3.85,3.85c0,1.58 -0.89,1.78 -3.49,2.2c-3.09,0.49 -6.09,0.99 -6.09,4.73c0,2.43 2.04,4.01 4.38,4.01c1.97,0 3.48,-0.69 4.87,-2.07l0.3,-0.3c0.26,1.94 1.68,2.2 3.39,1.91c0.36,-0.07 0.76,-0.23 0.99,-0.33l0,-0.72c-1.95,0.43 -1.85,-0.22 -1.85,-1.51m-2.63,-0.62c0,0.23 -0.66,0.79 -0.89,1.02c-0.62,0.62 -1.74,1.25 -2.63,1.25c-2.01,0 -3.22,-1.02 -3.22,-3.09c0,-2.99 3.35,-3.32 5.59,-3.75l1.15,-0.23l0,4.8l0,0z" class="st4"/>
       <path id="svg_139" fill="#fff" d="m156.45,5.04c0.83,0 1.58,-0.71 1.58,-1.57c0,-0.87 -0.74,-1.58 -1.58,-1.58c-0.87,0 -1.58,0.71 -1.58,1.58c0,0.86 0.72,1.57 1.58,1.57" class="st4"/>
       <path id="svg_140" fill="#fff" d="m163.8,5.04c0.83,0 1.58,-0.71 1.58,-1.57c0,-0.87 -0.74,-1.58 -1.58,-1.58c-0.86,0 -1.57,0.71 -1.57,1.58c0,0.86 0.71,1.57 1.57,1.57" class="st4"/>
       <path id="svg_141" fill="#fff" d="m59.78,24c2.25,0 4.08,-1.05 5.13,-2.98l0.04,2.72c0.41,-0.03 0.82,-0.09 1.3,-0.1c0.41,0 0.79,0.06 1.3,0.1l0,-8.95c0.2,-3.18 1.22,-5.1 4.22,-5.1c3.06,0 3.61,2.37 3.61,5.4l0,8.65c0.42,-0.03 0.84,-0.1 1.3,-0.1c0.42,0 0.81,0.07 1.3,0.1l0,-9.4c0,-4.29 -1.46,-6.34 -5.24,-6.34c-2.28,0 -4.05,1.14 -5.19,3.08l0,-2.89l-0.04,0c-0.47,0.03 -0.85,0.1 -1.3,0.1c-0.44,0 -0.85,-0.07 -1.3,-0.1l0,9.93c-0.19,2.09 -1.09,4.28 -3.96,4.28c-2.93,0 -3.93,-2.02 -3.93,-5.43l0,-8.78c-0.49,0.03 -0.88,0.1 -1.3,0.1c-0.45,0 -0.88,-0.06 -1.3,-0.1l0,9.56c-0.01,4.4 1.78,6.25 5.36,6.25" class="st4"/>
      </g>
     </g>
    </g>
   </svg>